<?xml version="1.0" encoding="UTF-8" standalone="no"?>
<svg
   xmlns:dc="http://purl.org/dc/elements/1.1/"
   xmlns:cc="http://creativecommons.org/ns#"
   xmlns:rdf="http://www.w3.org/1999/02/22-rdf-syntax-ns#"
   xmlns:svg="http://www.w3.org/2000/svg"
   xmlns="http://www.w3.org/2000/svg"
   viewBox="0 0 6666.6665 6666.6665"
   height="6666.6665"
   width="6666.6665"
   xml:space="preserve"
   id="svg2"
   version="1.1"><metadata
     id="metadata8"><rdf:RDF><cc:Work
         rdf:about=""><dc:format>image/svg+xml</dc:format><dc:type
           rdf:resource="http://purl.org/dc/dcmitype/StillImage" /></cc:Work></rdf:RDF></metadata><defs
     id="defs6"><clipPath
       id="clipPath22"
       clipPathUnits="userSpaceOnUse"><path
         id="path20"
         d="M 0,0.0273438 H 14670 V 14670 H 0 V 0.0273438" /></clipPath></defs><g
     transform="matrix(1.3333333,0,0,-1.3333333,0,6666.6667)"
     id="g10"><g
       transform="scale(0.340832)"
       id="g12"><path
         id="path14"
         style="fill:#ffffff;fill-opacity:1;fill-rule:nonzero;stroke:none"
         d="M 0,0.0273438 H 14670 V 14670.027 H 0 Z" /><g
         id="g16"><g
           clip-path="url(#clipPath22)"
           id="g18"><path
             id="path24"
             style="fill:#ecb497;fill-opacity:1;fill-rule:nonzero;stroke:none"
             d="m 9511.77,10436.8 c 17.83,35.1 43.77,58.6 80.03,65.7 -0.29,0.1 -0.61,0.1 -0.88,0.1 -35.85,-7.3 -61.46,-30.9 -79.15,-65.8" /><path
             id="path26"
             style="fill:#f8f8f8;fill-opacity:1;fill-rule:nonzero;stroke:none"
             d="M 8547.97,3295.18 H 4942.44 c -284.36,0 -515,229.52 -515,512.86 v 8652.26 c 0,283.2 230.64,512.9 515,512.9 h 3605.53 c 284.4,0 515.01,-229.7 515.01,-512.9 V 3808.04 c 0,-283.34 -230.61,-512.86 -515.01,-512.86 M 4942.44,12925.6 c -257.72,0 -467.42,-208.7 -467.42,-465.3 V 3808.04 c 0,-256.49 209.7,-465.27 467.42,-465.27 h 3605.53 c 257.73,0 467.45,208.78 467.45,465.27 v 8652.26 c 0,256.6 -209.72,465.3 -467.45,465.3 H 4942.44" /><path
             id="path28"
             style="fill:#262425;fill-opacity:1;fill-rule:nonzero;stroke:none"
             d="m 9063.01,3808.25 c 0,-283.34 -230.79,-512.87 -515.15,-512.87 H 4942.59 c -284.57,0 -515.18,229.53 -515.18,512.87 v 8652.05 c 0,283.2 230.61,512.9 515.18,512.9 h 3605.27 c 284.36,0 515.15,-229.7 515.15,-512.9 V 3808.25" /><path
             id="path30"
             style="fill:#ffffff;fill-opacity:1;fill-rule:nonzero;stroke:none"
             d="M 4668.9,4363.65 H 8821.39 V 11981.3 H 4668.9 Z" /><path
             id="path32"
             style="fill:#000000;fill-opacity:1;fill-rule:nonzero;stroke:none"
             d="m 7062.67,3796.6 c 0,-175.31 -142.24,-317.58 -317.37,-317.58 -175.28,0 -317.43,142.27 -317.43,317.58 0,175.28 142.15,317.54 317.43,317.54 175.13,0 317.37,-142.26 317.37,-317.54" /><path
             id="path34"
             style="fill:#000000;fill-opacity:1;fill-rule:nonzero;stroke:none"
             d="m 6098.73,12473.9 c 0,-49.2 -39.99,-89.2 -89.28,-89.2 -49.29,0 -89.28,40 -89.28,89.2 0,49.3 39.99,89.3 89.28,89.3 49.29,0 89.28,-40 89.28,-89.3" /><path
             id="path36"
             style="fill:#000000;fill-opacity:1;fill-rule:nonzero;stroke:none"
             d="m 7194.75,12473.9 c 0,-24.6 -19.83,-44.6 -44.65,-44.6 h -704.22 c -24.5,0 -44.65,20 -44.65,44.6 0,24.7 20.15,44.7 44.65,44.7 h 704.22 c 24.82,0 44.65,-20 44.65,-44.7" /><path
             id="path38"
             style="fill:#ffffff;fill-opacity:1;fill-rule:nonzero;stroke:none"
             d="M 8821.39,4363.65 H 4668.88 v 7617.65 h 4152.55 l -0.04,-7617.65" /><path
             id="path40"
             style="fill:#ebe6da;fill-opacity:1;fill-rule:nonzero;stroke:none"
             d="M 6063.82,8262.05 4668.88,8635.76 V 7146.93 l 1069.32,-242.38 325.62,1357.5" /><path
             id="path42"
             style="fill:#96d666;fill-opacity:1;fill-rule:nonzero;stroke:none"
             d="M 7517.26,6555.93 8821.43,6236.86 V 7397 l -832.68,207.72 -471.49,-1048.79" /><path
             id="path44"
             style="fill:#ebe6da;fill-opacity:1;fill-rule:nonzero;stroke:none"
             d="m 6134.29,6888.91 1233.28,-296.39 469.94,1055.13 -1425.63,350.26 -277.59,-1109" /><path
             id="path46"
             style="fill:#ebe6da;fill-opacity:1;fill-rule:nonzero;stroke:none"
             d="M 7734.05,7957.36 8141.26,9714.33 6940.55,10008.1 6533.34,8251.11 7734.05,7957.36" /><path
             id="path48"
             style="fill:#ebe6da;fill-opacity:1;fill-rule:nonzero;stroke:none"
             d="m 7865.64,7812.48 955.79,-238.53 v 1973.96 l -548.02,118.86 -407.77,-1854.29" /><path
             id="path50"
             style="fill:#ebe6da;fill-opacity:1;fill-rule:nonzero;stroke:none"
             d="M 6652.46,9363.48 5688,9890.6 4668.88,9777.47 v -977.93 l 1734.55,-454.07 249.03,1018.01" /><path
             id="path52"
             style="fill:#ebe6da;fill-opacity:1;fill-rule:nonzero;stroke:none"
             d="m 6843.53,6600.59 -751.87,188.6 -238.03,-981.04 720.5,-175.72 269.4,968.16" /><path
             id="path54"
             style="fill:#ebe6da;fill-opacity:1;fill-rule:nonzero;stroke:none"
             d="m 7940.99,6325.27 -952.76,239 -267.35,-967.63 1113.6,-271.58 106.51,1000.21" /><path
             id="path56"
             style="fill:#ebe6da;fill-opacity:1;fill-rule:nonzero;stroke:none"
             d="M 8094.85,6286.65 7981.1,5289.3 8821.43,5084.36 v 1020 l -726.58,182.29" /><path
             id="path58"
             style="fill:#ebe6da;fill-opacity:1;fill-rule:nonzero;stroke:none"
             d="m 5556.97,6741.86 -888.09,213.8 V 4840.75 l 399.93,-94.39 488.16,1995.5" /><path
             id="path60"
             style="fill:#ebe6da;fill-opacity:1;fill-rule:nonzero;stroke:none"
             d="m 8821.43,9753.82 v 901.68 l -959.63,311.6 -680.95,-173.1 -150.05,-629.5 1790.63,-410.68" /><path
             id="path62"
             style="fill:#96d666;fill-opacity:1;fill-rule:nonzero;stroke:none"
             d="m 4668.88,9916.83 1023.14,126.97 564.88,912.1 808.67,-44 819.29,170.6 936.57,-265.5 v 1164.3 H 4668.88 V 9916.83" /><path
             id="path64"
             style="fill:#96d666;fill-opacity:1;fill-rule:nonzero;stroke:none"
             d="m 6063.82,8262.05 -810.78,217.21 -157.3,-243.61 215.45,-523.19 546.51,-309.68 206.12,859.27" /><path
             id="path66"
             style="fill:#ebe6da;fill-opacity:1;fill-rule:nonzero;stroke:none"
             d="m 6696.12,9478.26 288.53,1292.64 -670.04,35 -497.52,-848.58 879.03,-479.06" /><path
             id="path68"
             style="fill:#e62233;fill-opacity:1;fill-rule:nonzero;stroke:none"
             d="m 7127.1,10095.7 c -363.08,0 -657.42,-294.29 -657.42,-657.37 0,-536.69 657.42,-1310.36 657.42,-1310.36 0,0 657.45,773.67 657.45,1310.36 0,363.08 -294.34,657.37 -657.45,657.37" /><path
             id="path70"
             style="fill:#ffffff;fill-opacity:1;fill-rule:nonzero;stroke:none"
             d="m 7127.1,8988.63 c -248.34,0 -449.67,201.33 -449.67,449.7 0,248.36 201.33,449.66 449.67,449.66 248.36,0 449.69,-201.3 449.69,-449.66 0,-248.37 -201.33,-449.7 -449.69,-449.7" /><path
             id="path72"
             style="fill:#e62233;fill-opacity:1;fill-rule:nonzero;stroke:none"
             d="m 7127.1,9192.52 c -135.73,0 -245.78,110.05 -245.78,245.81 0,135.72 110.05,245.78 245.78,245.78 135.75,0 245.81,-110.06 245.81,-245.78 0,-135.76 -110.06,-245.81 -245.81,-245.81" /><path
             id="path74"
             style="fill:#e62233;fill-opacity:1;fill-rule:nonzero;stroke:none"
             d="m 7092.45,7940.08 -123.35,29.22 17.55,74.03 123.37,-29.2 -17.57,-74.05" /><path
             id="path76"
             style="fill:#e62233;fill-opacity:1;fill-rule:nonzero;stroke:none"
             d="m 6819.44,8004.83 -299.3,71.12 17.61,74.06 299.26,-71.12 -17.57,-74.06" /><path
             id="path78"
             style="fill:#e62233;fill-opacity:1;fill-rule:nonzero;stroke:none"
             d="m 6262.21,8045.55 -73.82,18.46 39.76,159.49 159.96,-37.96 -17.6,-74.03 -86.73,20.6 -21.57,-86.56" /><path
             id="path80"
             style="fill:#e62233;fill-opacity:1;fill-rule:nonzero;stroke:none"
             d="m 6173.05,7687.73 -73.82,18.45 59.41,238.53 73.82,-18.45 z m -89.17,-357.78 -73.84,18.46 59.44,238.53 73.82,-18.45 z m -89.16,-357.77 -73.85,18.46 59.47,238.53 73.82,-18.46 z m -89.17,-357.77 -73.84,18.45 59.47,238.48 73.82,-18.45 z m -89.16,-357.83 -73.82,18.42 59.45,238.54 73.82,-18.43 z m -89.16,-357.8 -73.82,18.45 59.44,238.54 73.82,-18.43 -59.44,-238.56" /><path
             id="path82"
             style="fill:#e62233;fill-opacity:1;fill-rule:nonzero;stroke:none"
             d="m 5743.54,5597.78 -159.7,40.37 39.82,159.85 73.82,-18.46 -21.48,-86.17 86.17,-21.8 -18.63,-73.79" /><path
             id="path84"
             style="fill:#e62233;fill-opacity:1;fill-rule:nonzero;stroke:none"
             d="m 6076.23,5513.66 -221.82,56.07 18.66,73.82 221.82,-56.1 -18.66,-73.79" /><path
             id="path86"
             style="fill:#e62233;fill-opacity:1;fill-rule:nonzero;stroke:none"
             d="m 6324.59,5359.13 -34.54,100.49 -102.95,25.99 18.63,73.79 142.89,-36.15 47.91,-139.36 -71.94,-24.76" /><path
             id="path88"
             style="fill:#e62233;fill-opacity:1;fill-rule:nonzero;stroke:none"
             d="m 6442.1,5017.02 -78.37,228.06 71.94,24.76 78.37,-228.05 z m 117.53,-342.13 -78.36,228.09 71.94,24.76 78.36,-228.09 -71.94,-24.76" /><path
             id="path90"
             style="fill:#e62233;fill-opacity:1;fill-rule:nonzero;stroke:none"
             d="m 6639.96,4440.93 -41.19,119.95 71.94,24.76 41.2,-119.94 -71.95,-24.77" /><path
             id="path92"
             style="fill:#ebe6da;fill-opacity:1;fill-rule:nonzero;stroke:none"
             d="M 8821.43,4870.5 6679.28,5394.51 6978.25,4363.65 H 8821.43 V 4870.5" /><path
             id="path94"
             style="fill:#ebe6da;fill-opacity:1;fill-rule:nonzero;stroke:none"
             d="M 5415.05,5519.62 5147.53,4363.65 h 1267.54 l -249.83,971.3 -750.19,184.67" /><path
             id="path96"
             style="fill:#ebe6da;fill-opacity:1;fill-rule:nonzero;stroke:none"
             d="m 4668.88,4614.98 v -251.33 h 304.28 l 37.94,174.96 -342.22,76.37" /><path
             id="path98"
             style="fill:#000000;fill-opacity:1;fill-rule:nonzero;stroke:none"
             d="M 8547.86,12973.2 H 4942.59 c -284.57,0 -515.18,-229.7 -515.18,-512.9 V 3808.25 c 0,-283.34 230.61,-512.87 515.18,-512.87 h 3605.27 c 284.36,0 515.15,229.53 515.15,512.87 v 8652.05 c 0,283.2 -230.79,512.9 -515.15,512.9 z m 0,-47.6 c 257.9,0 467.56,-208.7 467.56,-465.3 V 3808.25 c 0,-256.5 -209.66,-465.28 -467.56,-465.28 H 4942.59 c -257.93,0 -467.45,208.78 -467.45,465.28 v 8652.05 c 0,256.6 209.52,465.3 467.45,465.3 h 3605.27" /><path
             id="path100"
             style="fill:#fcd2ab;fill-opacity:1;fill-rule:nonzero;stroke:none"
             d="m 3950.78,7079.8 c 470.7,-11.73 941.43,-339.7 795.73,-866.82 -83.74,-303 -818.15,-269.4 -1075.93,-35.15 -257.75,234.28 -190.5,913.68 280.2,901.97" /><path
             id="path102"
             style="fill:#fcd2ab;fill-opacity:1;fill-rule:nonzero;stroke:none"
             d="m 3950.78,8660.64 c 470.7,-11.71 956.36,-228.47 817.59,-757.44 -111.35,-424.34 -840.01,-378.78 -1097.79,-144.5 -257.75,234.28 -190.5,913.65 280.2,901.94" /><path
             id="path104"
             style="fill:#fcd2ab;fill-opacity:1;fill-rule:nonzero;stroke:none"
             d="m 3950.78,5745.45 c 470.7,-11.74 941.43,-339.7 795.73,-866.82 -83.74,-303 -818.15,-269.4 -1075.93,-35.15 -257.75,234.28 -190.5,913.67 280.2,901.97" /><path
             id="path106"
             style="fill:#ebad95;fill-opacity:1;fill-rule:nonzero;stroke:none"
             d="m 4637.83,6238.86 c 116.95,423.23 -163.51,717.89 -522.19,823.75 407.88,-74.5 759.43,-384.45 630.9,-849.63 -62.76,-226.89 -490.24,-265.03 -809.29,-171.52 300.06,-56.8 644.75,-4.52 700.58,197.4" /><path
             id="path108"
             style="fill:#ebad95;fill-opacity:1;fill-rule:nonzero;stroke:none"
             d="m 3925.81,7625.7 c 302.88,-55.07 658.77,17.14 733.85,303.38 102.9,392.19 -137.48,612.56 -460.46,705.19 374.94,-72.27 683.33,-295.99 569.17,-731.07 -84.35,-321.45 -522.78,-373.09 -842.56,-277.5" /><path
             id="path110"
             style="fill:#ebad95;fill-opacity:1;fill-rule:nonzero;stroke:none"
             d="m 4637.83,4904.54 c 116.95,423.16 -163.51,717.85 -522.19,823.69 407.88,-74.47 759.43,-384.42 630.9,-849.6 -62.76,-226.89 -490.24,-265 -809.29,-171.52 300.06,-56.81 644.75,-4.52 700.58,197.43" /><path
             id="path112"
             style="fill:#fef4e1;fill-opacity:1;fill-rule:nonzero;stroke:none"
             d="m 4506.45,8381.03 c 0,0 -190.5,-461.11 -179.39,-608.37 0,0 -237.18,113.61 -303.96,210.25 -66.78,96.65 50.29,439.23 160.02,434.77 109.76,-4.47 323.33,-36.65 323.33,-36.65" /><path
             id="path114"
             style="fill:#fef4e1;fill-opacity:1;fill-rule:nonzero;stroke:none"
             d="m 4410.89,6772.58 c 0,0 -132.8,-475.25 -114.69,-621.04 0,0 -206.26,93.51 -268.17,184.26 -61.91,90.72 16.14,441.8 108.74,446.43 92.56,4.67 274.12,-9.65 274.12,-9.65" /><path
             id="path116"
             style="fill:#fef4e1;fill-opacity:1;fill-rule:nonzero;stroke:none"
             d="m 4410.89,5441.78 c 0,0 -263.24,-305.2 -114.69,-621.01 0,0 -228.41,44.45 -290.32,135.19 -61.91,90.75 15.81,416.99 97.03,461.7 71.61,39.46 307.98,24.12 307.98,24.12" /><path
             id="path118"
             style="fill:#f7c7ab;fill-opacity:1;fill-rule:nonzero;stroke:none"
             d="m 9884.21,10025.7 c -2.5,7.6 -4.96,14.8 -7.46,22.3 2.47,-7.5 4.96,-14.8 7.46,-22.3" /><path
             id="path120"
             style="fill:#f7c7ab;fill-opacity:1;fill-rule:nonzero;stroke:none"
             d="m 9837.35,10163.7 c -3.17,9 -6.31,17.7 -9.42,26.5 3.11,-8.7 6.25,-17.5 9.42,-26.5" /><path
             id="path122"
             style="fill:#f7c7ab;fill-opacity:1;fill-rule:nonzero;stroke:none"
             d="m 9860.29,10097 c -2.96,8.7 -5.86,17.1 -8.77,25.7 2.91,-8.6 5.81,-17 8.77,-25.7" /><path
             id="path124"
             style="fill:#f7c7ab;fill-opacity:1;fill-rule:nonzero;stroke:none"
             d="m 9792.9,10283.3 c -3.08,7.7 -6.16,15.2 -9.21,22.6 3.05,-7.4 6.13,-15 9.21,-22.6" /><path
             id="path126"
             style="fill:#f7c7ab;fill-opacity:1;fill-rule:nonzero;stroke:none"
             d="m 9814.91,10226 c -3.17,8.6 -6.31,16.9 -9.45,25.2 3.11,-8.3 6.28,-16.6 9.45,-25.2" /><path
             id="path128"
             style="fill:#f7c7ab;fill-opacity:1;fill-rule:nonzero;stroke:none"
             d="m 10042.3,9574 c -5.7,14.37 -11.3,28.89 -16.8,43.54 5.5,-14.61 11.1,-29.17 16.8,-43.54" /><path
             id="path130"
             style="fill:#f7c7ab;fill-opacity:1;fill-rule:nonzero;stroke:none"
             d="m 9985.61,9725.95 c -5.96,16.81 -11.8,33.59 -17.61,50.4 5.81,-16.81 11.65,-33.59 17.61,-50.4" /><path
             id="path132"
             style="fill:#f7c7ab;fill-opacity:1;fill-rule:nonzero;stroke:none"
             d="m 10013.4,9649.37 c -5.7,15.46 -11.4,31.01 -17,46.62 5.6,-15.58 11.3,-31.16 17,-46.62" /><path
             id="path134"
             style="fill:#f7c7ab;fill-opacity:1;fill-rule:nonzero;stroke:none"
             d="m 9958.61,9803.29 c -6.81,19.92 -13.49,39.69 -20.13,59.44 6.64,-19.72 13.32,-39.55 20.13,-59.44" /><path
             id="path136"
             style="fill:#f7c7ab;fill-opacity:1;fill-rule:nonzero;stroke:none"
             d="m 9932.77,9879.57 c -8.63,25.73 -17.08,51.2 -25.41,76.37 8.33,-25.17 16.81,-50.67 25.41,-76.37" /><path
             id="path138"
             style="fill:#f7c7ab;fill-opacity:1;fill-rule:nonzero;stroke:none"
             d="m 9771.19,10334.6 c -2.94,6.5 -5.87,13.1 -8.74,19.3 2.87,-6.2 5.8,-12.8 8.74,-19.3" /><path
             id="path140"
             style="fill:#f7c7ab;fill-opacity:1;fill-rule:nonzero;stroke:none"
             d="m 9605.92,10499.6 c -3.79,0.9 -7.46,2 -11.27,2.7 3.81,-0.7 7.48,-1.8 11.27,-2.7" /><path
             id="path142"
             style="fill:#f7c7ab;fill-opacity:1;fill-rule:nonzero;stroke:none"
             d="m 9656.5,10480.7 c -1.88,1 -3.64,2.2 -5.55,3.2 1.91,-1 3.67,-2.2 5.55,-3.2" /><path
             id="path144"
             style="fill:#f7c7ab;fill-opacity:1;fill-rule:nonzero;stroke:none"
             d="m 9727.86,10416.3 c -2.27,3.4 -4.52,7.4 -6.72,10.4 2.2,-3 4.45,-7 6.72,-10.4" /><path
             id="path146"
             style="fill:#f7c7ab;fill-opacity:1;fill-rule:nonzero;stroke:none"
             d="m 9749.77,10378.9 c -2.73,5.2 -5.48,10.7 -8.18,15.5 2.7,-4.8 5.45,-10.3 8.18,-15.5" /><path
             id="path148"
             style="fill:#feefe2;fill-opacity:1;fill-rule:nonzero;stroke:none"
             d="m 9592.01,10503 c 0.91,-0.2 1.73,-0.5 2.64,-0.7 -1.23,0.2 -2.52,0.1 -3.73,0.3 0.38,0.1 0.71,0.3 1.09,0.4" /><path
             id="path150"
             style="fill:#feefe2;fill-opacity:1;fill-rule:nonzero;stroke:none"
             d="m 9968,9776.35 c -3.11,9.01 -6.3,17.96 -9.39,26.94 3.09,-8.98 6.28,-17.93 9.39,-26.94" /><path
             id="path152"
             style="fill:#feefe2;fill-opacity:1;fill-rule:nonzero;stroke:none"
             d="m 9938.48,9862.73 c -1.87,5.63 -3.81,11.27 -5.71,16.84 1.87,-5.57 3.84,-11.24 5.71,-16.84" /><path
             id="path154"
             style="fill:#feefe2;fill-opacity:1;fill-rule:nonzero;stroke:none"
             d="m 9783.69,10305.9 c -4.2,10 -8.37,19.4 -12.5,28.7 4.13,-9.3 8.33,-18.7 12.5,-28.7" /><path
             id="path156"
             style="fill:#feefe2;fill-opacity:1;fill-rule:nonzero;stroke:none"
             d="m 9996.4,9695.99 c -3.61,10.01 -7.24,19.92 -10.79,29.96 3.55,-10.01 7.18,-19.95 10.79,-29.96" /><path
             id="path158"
             style="fill:#feefe2;fill-opacity:1;fill-rule:nonzero;stroke:none"
             d="m 10055.2,9541.78 c -4.3,10.68 -8.6,21.39 -12.9,32.22 4.2,-10.83 8.6,-21.54 12.9,-32.22" /><path
             id="path160"
             style="fill:#feefe2;fill-opacity:1;fill-rule:nonzero;stroke:none"
             d="m 10025.5,9617.54 c -4.1,10.56 -8.1,21.15 -12.1,31.83 4,-10.68 8.1,-21.27 12.1,-31.83" /><path
             id="path162"
             style="fill:#feefe2;fill-opacity:1;fill-rule:nonzero;stroke:none"
             d="m 9762.45,10353.9 c -4.29,8.9 -8.49,17 -12.68,25 4.19,-8 8.39,-16.1 12.68,-25" /><path
             id="path164"
             style="fill:#feefe2;fill-opacity:1;fill-rule:nonzero;stroke:none"
             d="m 9805.46,10251.2 c -4.23,11 -8.42,21.7 -12.56,32.1 4.14,-10.4 8.33,-21.1 12.56,-32.1" /><path
             id="path166"
             style="fill:#feefe2;fill-opacity:1;fill-rule:nonzero;stroke:none"
             d="m 9721.14,10426.7 c -6.78,9.2 -13.53,17.2 -20.19,23.2 6.66,-6 13.41,-14 20.19,-23.2" /><path
             id="path168"
             style="fill:#feefe2;fill-opacity:1;fill-rule:nonzero;stroke:none"
             d="m 9650.95,10483.9 c -14.34,7 -29.51,11.9 -45.03,15.7 15.52,-3.8 30.69,-8.7 45.03,-15.7" /><path
             id="path170"
             style="fill:#feefe2;fill-opacity:1;fill-rule:nonzero;stroke:none"
             d="m 9851.52,10122.7 c -4.75,13.9 -9.5,27.6 -14.17,41 4.67,-13.3 9.42,-27.1 14.17,-41" /><path
             id="path172"
             style="fill:#feefe2;fill-opacity:1;fill-rule:nonzero;stroke:none"
             d="m 9827.93,10190.2 c -4.37,12.2 -8.71,24.2 -13.02,35.8 4.31,-11.6 8.65,-23.6 13.02,-35.8" /><path
             id="path174"
             style="fill:#feefe2;fill-opacity:1;fill-rule:nonzero;stroke:none"
             d="m 9700.95,10449.9 c -13.79,12.6 -28.81,22.4 -44.45,30.8 15.67,-8.3 30.63,-18.2 44.45,-30.8" /><path
             id="path176"
             style="fill:#feefe2;fill-opacity:1;fill-rule:nonzero;stroke:none"
             d="m 9741.59,10394.4 c -4.61,8.2 -9.19,15.1 -13.73,21.9 4.54,-6.8 9.12,-13.7 13.73,-21.9" /><path
             id="path178"
             style="fill:#feefe2;fill-opacity:1;fill-rule:nonzero;stroke:none"
             d="m 9907.36,9955.94 c -7.84,23.62 -15.52,46.86 -23.15,69.76 7.59,-22.9 15.31,-46.17 23.15,-69.76" /><path
             id="path180"
             style="fill:#feefe2;fill-opacity:1;fill-rule:nonzero;stroke:none"
             d="m 9876.75,10048 c -5.54,16.5 -11.03,33 -16.46,49 5.43,-16 10.95,-32.5 16.46,-49" /><path
             id="path182"
             style="fill:#fef4e1;fill-opacity:1;fill-rule:nonzero;stroke:none"
             d="m 9700.95,10449.6 c 101.22,-92 210.31,-561.37 362.95,-929.8 -86.63,-25.02 -202.61,-62.67 -265.36,-100.34 -108.45,-65.05 -166.27,7.25 -206.03,159.05 -39.73,151.69 -234.63,878.69 -0.47,924.09 40.16,-7 77.25,-24.2 108.91,-53" /><path
             id="path184"
             style="fill:#fcd2ab;fill-opacity:1;fill-rule:nonzero;stroke:none"
             d="M 7097.67,812.602 C 6796.52,1306.25 6338.5,1605.07 5935.39,2122.78 c -575.82,739.63 -702.63,950.94 -808.28,1172.63 h 3420.72 c 284.54,0 515.15,229.47 515.15,512.84 v 3051.27 l 288.23,-225.01 c 29.88,569.66 36.33,1274.59 -29.8,1353.95 -81.57,97.91 -181.56,515.06 -258.43,1020.5 v 1055.64 c 51.14,386.4 271.98,593.4 527.94,438 -232.34,-47.6 -38.08,-772.31 1.56,-923.8 39.75,-151.74 97.58,-224 206.06,-158.99 62.75,37.65 178.76,75.32 265.36,100.35 -3,7.04 -5.8,14.43 -8.7,21.62 18.6,-45.86 37.8,-90.6 57.8,-132.85 0,0 532.5,-844.05 629.8,-1235.22 170.7,-686.46 325.8,-1129.62 636,-1905.16 192,-819.82 74.9,-1058.38 59.1,-1927.7 -22.2,-1218.66 -362.3,-2073.78 -421,-2681.06 -44.3,-457.93 236.3,-952.813 435.7,-1659.7626562 H 7340.66 C 7254.96,392.188 7191.62,658.566 7097.67,812.602" /><path
             id="path186"
             style="fill:#fcd2ab;fill-opacity:1;fill-rule:nonzero;stroke:none"
             d="m 4049.24,10344 c 89.58,-20.5 216.74,-74.9 378.17,-138.3 V 8930.66 c -407.04,207.78 -642.7,448.05 -792.42,635 -182.58,227.97 -156.5,420.68 -98.05,566.14 76.05,189.2 293.04,262.2 512.3,212.2" /><path
             id="path188"
             style="fill:#ebad95;fill-opacity:1;fill-rule:nonzero;stroke:none"
             d="m 4267.91,9712.57 c 15.55,346.73 131.92,374.63 159.5,362.33 v -998.95 c 0,0 -180.12,175.71 -159.5,636.62" /><path
             id="path190"
             style="fill:#ebad95;fill-opacity:1;fill-rule:nonzero;stroke:none"
             d="m 9569.24,6268.58 c -41.37,86.26 -104.89,292.93 -132.94,664.7 -29.51,391.48 -29.13,960.15 29.55,1011.88 58.65,51.78 109.94,71.29 -7.37,140.33 -273.65,160.96 -285.97,755.18 -273.27,989.69 14.76,273.31 39.34,834.11 -15.9,961.72 -20.72,48 -55.57,85.7 -91.01,114.2 -5.99,-27.9 -11.36,-56.4 -15.32,-86.5 V 9008.94 c 76.87,-505.42 176.83,-922.54 258.46,-1020.45 66.1,-79.42 59.65,-784.35 29.77,-1353.98 l -3.75,2.9 0.82,-0.61 -285.3,222.72 V 3808.25 c 0,-283.37 -230.61,-512.87 -515.15,-512.87 H 5334.89 c 0.3,-0.53 0.62,-1.11 0.94,-1.7 57.83,-106.42 170.49,-171.49 291.64,-171.49 h 1889.08 c 48.8,-497.55 169.15,-836.05 162.17,-759.09 -9.33,102.25 0.5,343.19 62.55,759.09 264.77,0 1028.13,0 1028.13,0 284.55,0 515.15,177.24 515.15,523.57 v 2386.4 c 118.74,120.64 238.95,207.25 269.17,217.85 15.52,3.87 21.86,5.4 15.52,18.57" /><path
             id="path192"
             style="fill:#ebad95;fill-opacity:1;fill-rule:nonzero;stroke:none"
             d="m 11016.9,1659.79 c 58.7,607.28 398.8,1462.4 421,2681.06 15.8,869.32 132.9,1107.88 -59.1,1927.73 -63.2,157.99 -119.7,301.73 -171.5,437.05 -5.1,9.65 -9.7,19.13 -13.2,28.25 138.9,-399.61 163.8,-865.59 81.3,-1395.93 -60.9,-391.4 44.3,-605.64 -73.9,-1344.25 -117.3,-733.5 -294.9,-1321.29 -517,-1654.42 -221.6,-332.37 -744.23,-722.17 -930.59,-842 C 9443.7,1297.86 9336.61,917.492 9369.85,817.793 9404.2,714.723 9598.79,308.156 9665.27,0.0273438 H 11452.6 C 11253.2,707.008 10972.6,1201.86 11016.9,1659.79" /></g></g></g></g></svg>