<?xml version="1.0" encoding="UTF-8" standalone="no"?>
<svg
   xmlns:dc="http://purl.org/dc/elements/1.1/"
   xmlns:cc="http://creativecommons.org/ns#"
   xmlns:rdf="http://www.w3.org/1999/02/22-rdf-syntax-ns#"
   xmlns:svg="http://www.w3.org/2000/svg"
   xmlns="http://www.w3.org/2000/svg"
   viewBox="0 0 6666.6665 6666.6665"
   height="6666.6665"
   width="6666.6665"
   xml:space="preserve"
   id="svg2"
   version="1.1"><metadata
     id="metadata8"><rdf:RDF><cc:Work
         rdf:about=""><dc:format>image/svg+xml</dc:format><dc:type
           rdf:resource="http://purl.org/dc/dcmitype/StillImage" /></cc:Work></rdf:RDF></metadata><defs
     id="defs6" /><g
     transform="matrix(1.3333333,0,0,-1.3333333,0,6666.6667)"
     id="g10"><g
       transform="scale(0.340832)"
       id="g12"><path
         id="path14"
         style="fill:#73cfbc;fill-opacity:1;fill-rule:nonzero;stroke:none"
         d="M 0,0 H 14670 V 14670 H 0 Z" /><path
         id="path16"
         style="fill:#44b89d;fill-opacity:1;fill-rule:nonzero;stroke:none"
         d="m 13248.3,2923.67 c -66.6,-95.21 -157.1,-175.8 -268.1,-231.78 -350.3,-176.54 -775.6,-42.9 -963.4,297.77 -563.3,19.6 -1205.6,30.69 -1887.3,30.69 -176.9,0 -351.12,-0.76 -522,-2.2 -67.42,-136.26 -177.95,-252.59 -324.12,-326.26 -351.17,-176.98 -777.74,-42.22 -964.81,300.35 -277.8,-9.15 -537.25,-20.36 -773.85,-33.3 1.23,1.67 1.88,3.37 1.88,5.08 0,65.66 -924.65,118.88 -2065.24,118.88 -464.04,0 -892.35,-8.8 -1237.15,-23.68 -53.02,-46.79 -116.69,-81.77 -197.87,-92.65 -16.17,-2.14 -32.42,-3.26 -48.27,-3.26 -0.03,0 -0.03,0 -0.03,0 -82.94,0 -151.86,28.69 -214.41,68.42 -231.73,-19.21 -367.54,-42.57 -367.54,-67.71 0,-65.67 924.64,-118.92 2065.27,-118.92 330.95,0 643.72,4.49 921.01,12.47 -201.62,-31.57 -313.06,-66.25 -313.06,-102.6 0,-146.56 1808.84,-265.38 4040.19,-265.38 2231.3,0 4040.2,118.82 4040.2,265.38 0,64.08 -345.8,122.85 -921.4,168.7" /><path
         id="path18"
         style="fill:#44b89d;fill-opacity:1;fill-rule:nonzero;stroke:none"
         d="m 3342.18,2699.81 c -1172.12,0 -2122.3,-46.47 -2122.3,-103.78 0,-57.33 950.18,-103.77 2122.3,-103.77 1172.1,0 2122.28,46.44 2122.28,103.77 0,57.31 -950.18,103.78 -2122.28,103.78" /><path
         id="path20"
         style="fill:#f57e39;fill-opacity:1;fill-rule:nonzero;stroke:none"
         d="m 3757.84,4339.09 9,-57.36 61.56,-391.89 1.88,-12.06 5.75,-36.59 8.48,-53.98 0.76,-4.82 4.14,-26.28 5.13,-32.72 c 0.09,-0.59 0.21,-1.2 0.33,-1.79 1.38,-7.83 3.72,-15.28 6.89,-22.21 2.23,-4.87 4.84,-9.48 7.83,-13.79 4.41,-6.36 9.57,-12.12 15.35,-17.13 3.4,-2.97 7.01,-5.69 10.79,-8.1 6.46,-4.14 13.41,-7.45 20.75,-9.89 7.22,-2.37 14.82,-3.87 22.62,-4.37 1.97,-0.15 3.96,-0.23 5.95,-0.23 4.73,0 9.54,0.38 14.35,1.14 0.89,0.12 1.76,0.32 2.64,0.47 5.28,1 10.36,2.38 15.23,4.2 7.37,2.72 14.26,6.39 20.54,10.79 9.71,6.84 17.96,15.44 24.35,25.27 4.17,6.42 7.51,13.4 9.98,20.71 1.61,4.78 2.81,9.68 3.64,14.73 1.2,7.54 1.46,15.34 0.7,23.24 -0.18,1.82 -0.38,3.63 -0.68,5.45 l -4.46,28.41 -4.04,25.75 -0.62,3.94 -12.14,77.19 -2.59,16.58 -4.22,26.87 -61.21,389.55 -8.65,55.16 -4.84,30.81 -3.35,21.27 c -48.09,-1.73 -94.12,5.92 -136.61,23.03 -10.29,4.13 -20.3,8.86 -30.04,14.02 -9.45,5.05 -18.63,10.56 -27.49,16.52 l 3.93,-25.03 13.23,-84.23 5.14,-32.63" /><path
         id="path22"
         style="fill:#f57e39;fill-opacity:1;fill-rule:nonzero;stroke:none"
         d="m 5633.81,5090.58 80.74,-21.89 30.43,-8.24 53.37,-14.47 38.81,-10.5 41.52,-11.27 163.37,-44.27 51.63,-14 43.63,-11.82 -318.72,-156.21 -50.11,-24.55 -28.11,-13.79 -19.92,-9.78 -55.42,-27.16 -110.62,-54.22 -46.91,-23.01 -38.58,96.44 -83.47,208.7 -92.99,232.52 z M 3777.2,4744.13 c 0,-0.79 0.03,-1.58 0.06,-2.38 1.17,-44.15 30.16,-99.28 84.35,-121.11 38.18,-15.37 84.5,-13.29 137.75,6.19 50.18,18.37 103.6,51.05 159.55,97.56 l -250.5,21.74 1179.09,455.32 112.61,-281.57 68.12,-170.32 29.96,-74.93 20.33,-50.85 -171.11,14.85 -190.86,16.54 -30.07,2.62 -155.82,13.52 -223.34,19.37 -152.63,13.26 c -4.28,-9.83 -10.35,-19.08 -18.25,-27.2 -54.78,-56.54 -109.2,-103.69 -162.92,-141.28 l 726.93,-63.05 190.97,-16.57 319.69,-27.73 c 0.2,-0.03 0.38,-0.03 0.59,-0.06 1.2,-0.09 2.4,-0.14 3.6,-0.17 0.86,-0.06 1.7,-0.09 2.56,-0.09 0.41,-0.03 0.82,-0.06 1.26,-0.06 1,0 1.99,0.06 2.99,0.09 0.38,0 0.79,0 1.18,0.03 1.69,0.08 3.4,0.2 5.1,0.38 0.15,0.03 0.32,0.03 0.5,0.03 3.66,0.41 7.36,1.03 11.03,1.9 0.67,0.15 1.32,0.33 1.97,0.5 1.08,0.3 2.2,0.56 3.28,0.88 0.85,0.27 1.71,0.56 2.58,0.85 0.86,0.27 1.71,0.56 2.53,0.86 0.99,0.35 1.96,0.73 2.93,1.14 0.7,0.26 1.41,0.56 2.11,0.88 0.27,0.09 0.53,0.21 0.8,0.32 h -0.06 l -45.13,13.5 -28.61,8.57 c -23.03,6.89 -41.34,22.03 -52.66,41.22 -12.56,21.24 -16.58,47.47 -8.92,72.97 9.95,33.27 37.12,56.71 68.83,63.46 14.59,3.11 30.07,2.7 45.36,-1.88 l 5.05,-1.5 37.38,-11.2 71.5,-21.39 149.96,-44.89 8.21,4.05 33.6,16.46 42.45,20.8 28.96,14.2 51.37,25.17 370.33,181.53 7.72,3.79 41.54,20.36 31.46,15.43 12.85,6.28 23.44,11.5 29.08,14.26 16.96,8.3 c 1.23,0.62 2.37,1.3 3.55,1.94 5.16,2.78 10,6.02 14.43,9.65 6.05,4.99 11.36,10.74 15.87,16.99 4.05,5.57 7.46,11.59 10.13,17.93 3.08,7.18 5.25,14.75 6.39,22.59 1.06,7.19 1.29,14.58 0.59,22.03 -0.41,4.25 -1.14,8.4 -2.11,12.44 -1.82,7.6 -4.55,14.88 -8.1,21.63 -4.34,8.24 -9.92,15.72 -16.49,22.27 -5.43,5.36 -11.56,10.09 -18.22,13.99 -6.92,4.05 -14.41,7.31 -22.42,9.48 l -21.09,5.72 -22.68,6.13 -16.78,4.55 -15.79,4.28 -29.84,8.1 -53.84,14.58 -119,32.25 -26.2,7.1 -265.38,71.91 -53.69,14.55 -30.51,8.27 -81.1,21.95 -473.58,128.34 c -0.26,-5.4 -1,-10.74 -2.2,-15.94 -6.84,-29.77 -28.34,-55.48 -59.3,-66.25 -9.97,-3.46 -20.12,-5.1 -30.13,-5.1 -26.82,0 -52.34,11.88 -69.71,32.18 -7.22,8.45 -13.05,18.34 -16.93,29.46 l -2.26,6.49 -1172.83,-452.93 c -13.88,-19.95 -25.41,-38.11 -34.98,-54.54 -39.55,-68.1 -45.45,-107.12 -45.39,-124.49" /><path
         id="path24"
         style="fill:#f57e39;fill-opacity:1;fill-rule:nonzero;stroke:none"
         d="m 5479.92,4430.16 c -3.67,-0.87 -7.37,-1.49 -11.03,-1.9 1.85,0.2 3.7,0.47 5.54,0.79 1.85,0.32 3.67,0.67 5.49,1.11" /><path
         id="path26"
         style="fill:#f6d89c;fill-opacity:1;fill-rule:nonzero;stroke:none"
         d="m 4468.13,6284.07 c 89.43,34.83 191.12,90.98 307.51,169.91 -0.44,1.35 -0.88,2.7 -1.29,4.05 -41.16,129.42 -38.87,253.91 -1.08,328.43 -195,-148.99 -322.16,-218.11 -402.11,-249.54 l 90.19,-255.43 c 2.26,0.85 4.52,1.67 6.78,2.58" /><path
         id="path28"
         style="fill:#f6d89c;fill-opacity:1;fill-rule:nonzero;stroke:none"
         d="m 5826.57,7229.46 c -45.86,112.73 -49.14,218.68 -6.57,274.74 -149.16,22.8 -288.71,49.88 -413.72,77.52 l -58.45,-264.74 c 143.06,-31.53 304.64,-62.34 478.74,-87.52" /><path
         id="path30"
         style="fill:#f8d89c;fill-opacity:1;fill-rule:nonzero;stroke:none"
         d="m 4250.46,9319.97 c 26.75,11.85 50.93,27.14 72.23,45.12 99.55,83.98 136.35,226.57 80.92,351.67 -67.27,151.87 -244.9,220.44 -396.76,153.16 -151.87,-67.28 -220.44,-244.93 -153.16,-396.79 33.77,-76.26 95.38,-131.51 167.59,-159.12 71.59,-27.34 153.6,-27.52 229.18,5.96" /><path
         id="path32"
         style="fill:#f8d89c;fill-opacity:1;fill-rule:nonzero;stroke:none"
         d="m 1947.76,7030.8 c -31.26,33.92 -72.1,59.74 -119.88,72.79 -135.53,37 -275.4,-42.89 -312.4,-178.41 -37.01,-135.52 42.87,-275.39 178.4,-312.41 109.85,-29.99 222.55,16.81 281.01,107.79 13.68,21.27 24.39,44.95 31.4,70.62 23.96,87.76 -1.1,177.34 -58.53,239.62" /><path
         id="path34"
         style="fill:#f8d89c;fill-opacity:1;fill-rule:nonzero;stroke:none"
         d="m 3174.85,8488.71 -300.6,-166.98 c -3.96,-2.19 -8.31,-3.28 -12.62,-3.28 -6.9,0 -13.7,2.73 -18.74,7.98 -8.18,8.48 -9.62,21.42 -3.51,31.51 l 218.58,360.97 c 7.45,12.29 23.42,16.22 35.71,8.77 12.29,-7.42 16.22,-23.41 8.77,-35.7 l -167.85,-277.24 215,119.44 c 12.56,6.99 28.4,2.47 35.39,-10.09 6.95,-12.55 2.43,-28.4 -10.13,-35.38 z m -64.72,-1021.18 c -32.25,-30.19 -73.41,-47.77 -119.86,-51.4 -6.01,-0.47 -12.11,-0.74 -18.31,-0.74 -76.19,0 -153.46,35.82 -211.97,98.32 -102.9,109.88 -113.27,267.99 -23.1,352.4 36.43,34.12 84.21,52.17 138.16,52.17 76.2,0 153.49,-35.85 211.99,-98.32 16.25,-17.37 30.34,-36.09 42.13,-55.75 24.09,-39.96 38.61,-83.79 41.9,-127.89 4.98,-67.36 -16.64,-127.33 -60.94,-168.79 z m -165.1,1491.79 43.69,-28.22 -262.53,-406.16 -43.68,28.26 z m -655.51,-1066.45 -56.13,-57.39 -184.3,-188.45 c -5.09,-5.19 -11.84,-7.8 -18.59,-7.8 -6.57,0 -13.13,2.46 -18.19,7.39 -10.27,10.03 -10.45,26.52 -0.41,36.79 l 171.98,175.84 -311.72,-88.7 c -13.82,-3.93 -28.2,4.08 -32.13,17.87 -3.94,13.82 4.08,28.22 17.89,32.16 l 344.9,98.14 60.99,17.37 c 11.35,3.23 23.44,-1.59 29.47,-11.74 6.03,-10.12 4.49,-23.03 -3.76,-31.48 z m -630.27,186.17 -5.29,51.72 484.79,49.58 5.29,-51.75 -215.81,-22.07 -170.78,-17.45 z m 1757.39,1089.45 c -19.19,-4.44 -33.5,-1.35 -38.34,14.08 -4.58,14.58 -33.16,47.41 -75.06,91.1 -327.02,-271.78 -869.17,-706.3 -1179.13,-867.94 -266.39,-138.92 -484.86,-221.78 -622.91,-267.19 52.76,-75.47 92.71,-131.24 102.04,-144.24 1.36,-1.88 2.09,-2.91 2.09,-2.91 l -34.22,-37.43 -17.38,-19.01 c -81.29,-119.83 -90.58,-277.06 -10.69,-401.61 89.76,-139.98 264,-194.85 422.16,-145.2 158.57,-176.4 315.85,-278.21 466.71,-329.14 285,-96.21 547.07,-10.83 751.54,96.03 73.91,38.64 140.33,80.1 197.55,116.8 25.49,16.34 52.57,33.95 80.62,52.96 201.63,136.64 452.16,346.01 503.74,682.68 10.41,68.04 12.7,141.24 4.84,220.14 -8.33,83.62 -28.14,173.58 -61.76,270.43 -12.38,35.59 -26.58,72.12 -42.81,109.61 7.57,4.2 15.08,8.66 22.51,13.41 36.09,23.12 67.13,51.02 92.83,82.24 92.1,111.76 115.19,265.74 52.87,394.33 -5.98,12.38 -12.76,24.56 -20.36,36.41 -88.32,137.72 -258.4,193.03 -414.49,147.5 -6.72,-5.52 -46.85,-38.24 -91.25,-67.37 -31.77,-20.86 -65.69,-39.85 -91.1,-45.68" /><path
         id="path36"
         style="fill:#f37016;fill-opacity:1;fill-rule:nonzero;stroke:none"
         d="m 3109.54,7715.01 c -12.47,27.61 -29.99,53.84 -51.99,77.34 -50.14,53.58 -118.39,85.56 -182.5,85.56 -43.52,0 -81.75,-14.26 -110.57,-41.25 -73.91,-69.22 -62.71,-201.72 24.98,-295.37 50.16,-53.54 118.39,-85.53 182.5,-85.53 12.3,0 24.15,1.18 35.51,3.41 28.84,5.69 54.39,18.45 75.08,37.81 35.18,32.98 52.31,81.4 48.24,136.38 -2.03,27.64 -9.34,55.25 -21.25,81.65" /><path
         id="path38"
         style="fill:#583418;fill-opacity:1;fill-rule:nonzero;stroke:none"
         d="m 4764.88,4738.47 c 14.52,48.56 65.66,76.14 114.19,61.58 l 128.15,-38.34 c 25.18,38.17 56.78,72.56 94.13,101.4 l -30.55,60.58 c -6.84,13.59 -23.38,19.04 -36.96,12.21 l -486.52,-245.22 223.34,-19.37 c -10.01,20.13 -12.74,43.95 -5.78,67.16" /><path
         id="path40"
         style="fill:#583418;fill-opacity:1;fill-rule:nonzero;stroke:none"
         d="m 5340.73,5707.66 c 41.31,97.99 -156.64,345.59 -326.64,265.02 -170,-80.56 -464.89,-363.25 -464.89,-363.25 -89.31,-69.33 -134.35,-157.97 4.43,-162.49 138.92,-4.55 293.34,25.35 428.51,68.01 62.46,19.69 120.79,42.1 171.61,65.11 101.43,45.89 172.84,94.09 186.98,127.6" /><path
         id="path42"
         style="fill:#583418;fill-opacity:1;fill-rule:nonzero;stroke:none"
         d="m 6254.05,4413.82 -13.61,27.02 -16.08,31.93 -30.07,59.62 -5.49,10.91 c -6.83,13.56 -23.38,19.04 -36.96,12.18 l -28.17,-14.18 -6.25,-3.16 -42.13,-21.25 -30.02,-15.1 -43.27,-21.81 -5.32,-2.69 -92.21,-46.48 -146.23,-73.7 -14.64,-7.37 -85.03,-42.86 c -13.55,-6.84 -19.01,-23.39 -12.18,-36.94 l 18.05,-35.83 47.21,-93.65 c 6.83,-13.58 23.38,-19.04 36.97,-12.2 l 459.49,231.58 33.77,17.02 c 13.55,6.83 19.01,23.38 12.17,36.96" /><path
         id="path44"
         style="fill:#583418;fill-opacity:1;fill-rule:nonzero;stroke:none"
         d="m 2988.72,8931.1 -43.69,28.22 -262.52,-406.12 43.68,-28.26 262.53,406.16" /><path
         id="path46"
         style="fill:#583418;fill-opacity:1;fill-rule:nonzero;stroke:none"
         d="m 2144.04,8128.59 -5.29,51.75 -484.79,-49.58 5.29,-51.72 98.2,10.03 170.78,17.45 215.81,22.07" /><path
         id="path48"
         style="fill:#583418;fill-opacity:1;fill-rule:nonzero;stroke:none"
         d="m 3411.51,9364.24 c -32.42,-27.31 -68.78,-57.74 -108.27,-90.57 41.9,-43.69 70.48,-76.52 75.06,-91.1 4.84,-15.43 19.15,-18.52 38.34,-14.08 25.41,5.83 59.33,24.82 91.1,45.68 44.4,29.13 84.53,61.85 91.25,67.37 0.65,0.52 1,0.84 1,0.84 0,0 0.47,90.81 -23.42,222.46 v 0 c 0,0 -63.16,-54.8 -165.06,-140.6" /><path
         id="path50"
         style="fill:#583418;fill-opacity:1;fill-rule:nonzero;stroke:none"
         d="m 1605.33,7991.39 c 0,0 -0.73,1.03 -2.09,2.91 -9.33,13 -49.28,68.77 -102.04,144.24 -14.27,-4.7 -27.66,-9.01 -40.18,-12.91 -77.74,-24.36 -120.97,-34.07 -120.97,-34.07 0,0 0,0 -0.01,0 172.36,-216.29 193.51,-178.71 193.51,-178.71 l 20.18,22.1 17.38,19.01 34.22,37.43" /><path
         id="path52"
         style="fill:#583418;fill-opacity:1;fill-rule:nonzero;stroke:none"
         d="m 3149.59,8534.18 -215,-119.44 167.85,277.24 c 7.45,12.29 3.52,28.28 -8.77,35.7 -12.29,7.45 -28.26,3.52 -35.71,-8.77 l -218.58,-360.97 c -6.11,-10.09 -4.67,-23.03 3.51,-31.51 5.04,-5.25 11.84,-7.98 18.74,-7.98 4.31,0 8.66,1.09 12.62,3.28 l 300.6,166.98 c 12.56,6.98 17.08,22.83 10.13,35.38 -6.99,12.56 -22.83,17.08 -35.39,10.09" /><path
         id="path54"
         style="fill:#583418;fill-opacity:1;fill-rule:nonzero;stroke:none"
         d="m 2263.81,7936.09 -60.99,-17.37 -344.9,-98.14 c -13.81,-3.94 -21.83,-18.34 -17.89,-32.16 3.93,-13.79 18.31,-21.8 32.13,-17.87 l 311.72,88.7 -171.98,-175.84 c -10.04,-10.27 -9.86,-26.76 0.41,-36.79 5.06,-4.93 11.62,-7.39 18.19,-7.39 6.75,0 13.5,2.61 18.59,7.8 l 184.3,188.45 56.13,57.39 c 8.25,8.45 9.79,21.36 3.76,31.48 -6.03,10.15 -18.12,14.97 -29.47,11.74" /><path
         id="path56"
         style="fill:#583418;fill-opacity:1;fill-rule:nonzero;stroke:none"
         d="m 3082.55,7496.98 c -20.69,-19.36 -46.24,-32.12 -75.08,-37.81 -11.36,-2.23 -23.21,-3.41 -35.51,-3.41 -64.11,0 -132.34,31.99 -182.5,85.53 -87.69,93.65 -98.89,226.15 -24.98,295.37 28.82,26.99 67.05,41.25 110.57,41.25 64.11,0 132.36,-31.98 182.5,-85.56 22,-23.5 39.52,-49.73 51.99,-77.34 11.91,-26.4 19.22,-54.01 21.25,-81.65 4.07,-54.98 -13.06,-103.4 -48.24,-136.38 z m 46.62,267.23 c -11.79,19.66 -25.88,38.38 -42.13,55.75 -58.5,62.47 -135.79,98.32 -211.99,98.32 -53.95,0 -101.73,-18.05 -138.16,-52.17 -90.17,-84.41 -79.8,-242.52 23.1,-352.4 58.51,-62.5 135.78,-98.32 211.97,-98.32 6.2,0 12.3,0.27 18.31,0.74 46.45,3.63 87.61,21.21 119.86,51.4 44.3,41.46 65.92,101.43 60.94,168.79 -3.29,44.1 -17.81,87.93 -41.9,127.89" /><path
         id="path58"
         style="fill:#f4f586;fill-opacity:1;fill-rule:nonzero;stroke:none"
         d="m 6973.36,5025.88 c -9.92,8.54 -19.98,17.2 -30.2,26 -42.86,36.88 -87.99,75.78 -133.43,115.01 -6.22,5.37 -12.47,10.77 -18.72,16.17 -50.29,43.45 -100.61,87.02 -148.31,128.45 -5.84,5.08 -11.65,10.12 -17.43,15.14 -35.83,31.16 -69.95,60.91 -101.14,88.28 -48.88,42.84 -90.63,79.75 -120.73,106.98 -22.27,20.12 -38.17,34.94 -45.89,42.86 -8.28,8.54 -6.31,-1.5 3.61,-25.88 7.1,-17.48 18.28,-42.3 32.77,-73.02 1.7,-3.67 3.49,-7.43 5.31,-11.24 3.32,-7.01 6.78,-14.26 10.42,-21.77 31.54,-65.66 73.96,-150.66 121.61,-244.64 3.93,-7.72 7.9,-15.52 11.88,-23.35 14.35,-28.26 29.14,-57.21 44.16,-86.61 3.49,-6.81 6.98,-13.59 10.48,-20.42 17.19,-33.6 34.7,-67.66 52.31,-101.79 4.08,-7.92 8.15,-15.81 12.23,-23.7 35.71,-69.15 71.56,-138.25 105.8,-204.09 7.37,-14.14 14.67,-28.14 21.86,-41.96 8.57,-16.46 17.02,-32.62 25.29,-48.5 8.86,-16.98 17.55,-33.56 26,-49.76 8.8,-16.84 17.37,-33.21 25.67,-49.05 15.11,-28.85 29.25,-55.86 42.25,-80.63 50.61,-96.44 83.3,-158.38 83.3,-158.38 0,0 -1059.97,-481.5 -1126.75,-558.95 -66.75,-77.43 1169.23,49.35 1169.23,49.35 l -230.53,-707.48 422.71,379.22 v 3.34 c 0,46.36 37.61,83.98 83.97,83.98 v 541.08 c 0,19.28 15.52,34.92 34.74,35.18 v 73.35 c 0,46.36 47.94,117.98 115.57,142.83 l 700.4,332.33 c 122.76,343.31 277.91,772.26 277.91,772.26 L 7708.35,4871.2 7328.13,5858.44 7225.47,4809.5 c 0,0 -64.58,55.28 -158.61,136.02 -15.87,13.64 -32.57,27.99 -49.93,42.93 -14.12,12.11 -28.67,24.64 -43.57,37.43" /><path
         id="path60"
         style="fill:#8b1546;fill-opacity:1;fill-rule:nonzero;stroke:none"
         d="m 8180.96,3536.29 c -0.85,-3.43 -1.7,-6.86 -2.5,-10.3 -0.2,-0.76 -0.37,-1.55 -0.55,-2.35 -0.79,-3.34 -1.59,-6.74 -2.32,-10.12 -0.2,-0.85 -0.38,-1.7 -0.55,-2.55 -0.74,-3.31 -1.44,-6.66 -2.12,-9.97 -0.21,-0.91 -0.38,-1.82 -0.56,-2.73 -0.67,-3.32 -1.32,-6.61 -1.93,-9.92 -0.18,-0.94 -0.36,-1.88 -0.53,-2.85 -0.61,-3.28 -1.2,-6.57 -1.76,-9.85 -0.18,-0.97 -0.32,-1.94 -0.5,-2.91 -0.56,-3.28 -1.09,-6.57 -1.59,-9.86 -0.14,-0.97 -0.29,-1.96 -0.43,-2.93 -0.5,-3.32 -1,-6.6 -1.44,-9.92 -0.15,-0.97 -0.27,-1.93 -0.41,-2.87 -0.44,-3.35 -0.88,-6.66 -1.29,-9.98 -0.09,-0.97 -0.21,-1.91 -0.33,-2.84 -0.41,-3.38 -0.79,-6.75 -1.14,-10.1 -0.09,-0.91 -0.18,-1.82 -0.26,-2.7 -0.36,-3.43 -0.68,-6.86 -1,-10.27 -0.06,-0.85 -0.15,-1.7 -0.21,-2.55 -0.29,-3.46 -0.58,-6.98 -0.85,-10.47 -0.06,-0.73 -0.09,-1.5 -0.15,-2.26 -0.26,-3.61 -0.49,-7.19 -0.7,-10.8 -0.03,-0.62 -0.06,-1.23 -0.09,-1.85 -0.2,-3.72 -0.38,-7.48 -0.53,-11.23 -0.02,-0.45 -0.02,-0.88 -0.06,-1.32 -1.84,-48.56 0.74,-97.53 7.96,-146.33 h 73.52 c -49.58,304.73 100.14,619.25 390.49,765.6 358.48,180.65 795.52,36.53 976.2,-321.94 71.8,-142.51 92.24,-297.36 68.36,-443.66 h 73.56 c 6.71,45.22 9.56,91.11 8.42,137.2 v 0 c -0.18,6.89 -0.47,13.82 -0.82,20.74 0.06,-0.85 0.06,-1.73 0.11,-2.58 -0.05,0.85 -0.05,1.73 -0.11,2.58 0,0.35 -0.03,0.71 -0.03,1.06 -0.36,6.75 -0.82,13.52 -1.35,20.27 -0.03,0.5 -0.06,1 -0.12,1.5 -0.53,6.75 -1.17,13.52 -1.88,20.31 -0.06,0.37 -0.09,0.78 -0.11,1.17 -0.77,6.95 -1.59,13.88 -2.53,20.8 0,0.09 -0.03,0.15 -0.03,0.23 -0.32,2.47 -0.73,4.93 -1.08,7.4 -3.79,26.11 -8.81,52.19 -15.23,78.1 0.32,-1.26 0.59,-2.55 0.88,-3.84 -0.29,1.29 -0.56,2.58 -0.88,3.84 0,0.03 -0.03,0.03 -0.03,0.06 0,0.03 0,0.06 -0.03,0.12 0.03,-0.06 0.03,-0.09 0.03,-0.12 -14.11,56.83 -34.74,113.02 -62.23,167.53 -198.72,394.3 -679.48,552.85 -1073.82,354.13 -211.42,-106.56 -355.01,-294.19 -412.16,-506.08 -0.94,-3.49 -1.85,-7.01 -2.73,-10.5 -0.18,-0.71 -0.38,-1.41 -0.56,-2.09" /><path
         id="path62"
         style="fill:#8b1546;fill-opacity:1;fill-rule:nonzero;stroke:none"
         d="m 13452.5,3361.72 c -1.5,57.21 -9.1,114.69 -23.2,171.52 0,0 0,0.03 0,0.06 -14.1,56.83 -34.8,113.02 -62.2,167.53 -198.8,394.3 -679.5,552.85 -1073.9,354.13 -211.3,-106.53 -355,-294.13 -412.1,-505.99 -1,-3.58 -1.9,-7.16 -2.8,-10.77 -0.2,-0.62 -0.3,-1.2 -0.5,-1.82 -0.9,-3.49 -1.7,-6.98 -2.5,-10.47 -0.2,-0.74 -0.4,-1.47 -0.6,-2.21 -0.8,-3.4 -1.5,-6.8 -2.3,-10.24 -0.2,-0.82 -0.4,-1.61 -0.6,-2.43 -0.7,-3.37 -1.4,-6.72 -2.1,-10.07 -0.1,-0.9 -0.3,-1.78 -0.5,-2.69 -0.7,-3.29 -1.3,-6.61 -2,-9.92 -0.1,-0.94 -0.3,-1.88 -0.5,-2.85 -0.6,-3.25 -1.2,-6.54 -1.7,-9.85 -0.2,-0.97 -0.4,-1.94 -0.5,-2.91 -0.6,-3.28 -1.1,-6.57 -1.6,-9.83 -0.2,-1 -0.3,-1.99 -0.5,-3.02 -0.5,-3.26 -0.9,-6.51 -1.4,-9.8 -0.2,-1 -0.3,-2.02 -0.4,-3.02 -0.5,-3.29 -0.9,-6.57 -1.3,-9.83 -0.1,-1.03 -0.2,-2.03 -0.3,-3.02 -0.4,-3.29 -0.8,-6.6 -1.1,-9.92 -0.2,-0.97 -0.3,-1.94 -0.3,-2.9 -0.4,-3.35 -0.7,-6.72 -1,-10.07 -0.1,-0.91 -0.2,-1.81 -0.2,-2.72 -0.3,-3.44 -0.6,-6.87 -0.9,-10.27 0,-0.86 -0.1,-1.68 -0.1,-2.53 -0.3,-3.49 -0.5,-7.01 -0.7,-10.53 0,-0.73 -0.1,-1.44 -0.1,-2.17 -0.2,-3.64 -0.4,-7.28 -0.6,-10.91 0,-0.56 0,-1.12 0,-1.68 -1.8,-48.47 0.7,-97.35 7.9,-146.06 h 73.6 c -49.6,304.73 100.1,619.25 390.4,765.6 358.5,180.65 795.6,36.53 976.2,-321.94 71.9,-142.51 92.3,-297.36 68.4,-443.66 h 73.6 c 6.7,45.22 9.5,91.17 8.4,137.26" /><path
         id="path64"
         style="fill:#e21c77;fill-opacity:1;fill-rule:nonzero;stroke:none"
         d="m 3980.97,8703.3 c -19.04,-70.06 -43.25,-138.51 -72.53,-205.26 33.62,-96.85 53.43,-186.81 61.76,-270.43 l 123.41,-37.5 c 27.08,45.45 55.3,97.85 82.47,156.91 62.23,135.38 107.41,279.7 134.23,428.96 33.39,185.66 38.32,379.31 14.64,575.62 -0.56,4.58 -1.35,9.06 -2.26,13.49 -21.3,-17.98 -45.48,-33.27 -72.23,-45.12 -75.58,-33.48 -157.59,-33.3 -229.18,-5.96 8.8,-73.23 12.97,-145.38 12.56,-216.38 62.32,-128.59 39.23,-282.57 -52.87,-394.33" /><path
         id="path66"
         style="fill:#e21c77;fill-opacity:1;fill-rule:nonzero;stroke:none"
         d="m 2431.91,7059 c -164,-33.42 -332.13,-48.91 -484.15,-28.2 57.43,-62.28 82.49,-151.86 58.53,-239.62 -7.01,-25.67 -17.72,-49.35 -31.4,-70.62 37.65,-3.02 76.38,-4.54 116.19,-4.54 79.39,0 163.01,5.98 250.44,17.95 161.35,22.09 336.96,64.61 521.96,126.37 231.63,77.31 418.64,164.83 503.46,206.82 l -183.49,87.87 C 2978.98,7048.17 2716.91,6962.79 2431.91,7059" /><path
         id="path68"
         style="fill:#e21c77;fill-opacity:1;fill-rule:nonzero;stroke:none"
         d="m 1208.96,8265.93 c 42.37,4.23 90.16,14.7 142.46,30.57 10.99,3.35 22.19,6.93 33.57,10.74 475.29,158.9 1282.72,718.54 1801.74,1084.32 50.5,35.59 98.23,69.3 142.68,100.66 85.47,60.3 158.73,111.79 215.77,150.58 25.41,17.31 47.65,32.13 66.25,44.04 67.54,351.16 102.34,567.36 -63.73,623.86 -484.52,91.8 -913.14,115.8 -1278.4,81.1 -1.34,-46.3 -1.58,-96.1 -0.16,-147.8 0.59,-21 1.41,-42.2 2.59,-63.8 3.68,-67 10.76,-140.4 23.29,-215.04 31.94,-190.3 99.33,-388.85 236.29,-512.19 3.19,-2.88 6.4,-5.69 9.66,-8.48 48.16,-41.14 53.84,-113.52 12.71,-161.69 -13.21,-15.44 -29.63,-26.53 -47.43,-33.07 -37.67,-13.91 -81.55,-7.57 -114.25,20.36 -3.57,3.05 -7.1,6.13 -10.61,9.27 -112.68,100.11 -198.9,239.59 -256.38,414.75 -17.83,54.34 -32.89,112.29 -45.25,173.46 -19,94.13 -31.51,195.93 -37.28,304.63 -0.58,11 -1.07,22 -1.5,32.8 -2.18,54.2 -2.63,106.5 -1.86,155.7 -176.54,-31.4 -335.23,-78.5 -475.03,-139.8 -2.63,-50.5 -1.85,-102.6 2.28,-156.1 10.78,-139.72 44.59,-289.77 101.52,-449.79 1.98,-5.57 3.96,-11.15 6,-16.72 119.15,-327.14 300.07,-591.52 354.45,-667.13 9.93,-13.79 15.65,-21.34 16,-21.8 38.49,-50.26 29,-122.2 -21.23,-160.73 -9.41,-7.25 -19.59,-12.76 -30.17,-16.67 -45.85,-16.89 -99.21,-3.05 -130.54,37.77 -2.36,3.08 -17.28,22.65 -40.72,56.18 -72.64,103.95 -227.09,342.29 -343.12,640.38 -6.18,15.9 -12.27,31.95 -18.22,48.17 -58.7,160.02 -97.09,314.44 -114.9,461.46 -4.95,40.88 -8.31,81.18 -10.08,120.88 -119.78,-79.7 -219.06,-173.63 -296.66,-280.43 2.67,-75.9 8.75,-163.69 20.97,-255.9 18.94,-142.89 52.65,-296.45 111.35,-433.15 47.91,-111.55 112.44,-211.92 199.22,-286.03 27.23,-23.27 40.87,-56.54 40.15,-89.75 -0.55,-25.53 -9.58,-51.02 -27.45,-71.95 -13.2,-15.43 -29.62,-26.52 -47.42,-33.09 -37.68,-13.88 -81.56,-7.54 -114.26,20.39 -22.73,19.42 -44.58,40.4 -65.55,62.82 -30.76,32.92 -59.6,69 -86.49,108.23 -36.22,52.87 -68.88,111.38 -97.806,175.37 -9.801,21.65 -19.184,43.95 -28.125,66.83 -35.976,92.22 -65.109,194.74 -87.082,306.2 -18.457,-100.67 -24.148,-207.55 -16.562,-320.13 22.023,-326.82 152.003,-621.04 266.085,-795.21 29.23,-7.57 63.92,-8.97 103.23,-5.07" /><path
         id="path70"
         style="fill:#e21c77;fill-opacity:1;fill-rule:nonzero;stroke:none"
         d="m 8711.57,4781.69 c 0,0 125.93,222.66 281.79,279.11 l 500.57,1022.09 H 10714.1 V 4871.2 H 9305.95 c 5.1,-51.78 1.4,-118.94 -11.89,-207.58 -31.48,-209.66 -582.49,-130.41 -582.49,-6.16 0,124.23 0,124.23 0,124.23 z m 2144.23,1301.2 h 1205.5 L 12680.5,4871.2 H 10855.8 Z M 7345.83,4199.05 v -73.35 c 0.14,0 0.32,0.03 0.47,0.03 h 148.05 c 19.45,0 35.2,-15.78 35.2,-35.21 v -541.08 h 654.84 c -0.03,-0.21 -0.09,-0.39 -0.14,-0.56 57.15,211.89 200.74,399.52 412.16,506.08 394.34,198.72 875.1,40.17 1073.82,-354.13 27.46,-54.48 48.09,-110.61 62.2,-167.41 -1.32,5.34 -2.67,10.68 -4.14,16.02 h 2152.91 c 0,-0.15 -0.1,-0.33 -0.1,-0.47 57.1,211.86 200.8,399.46 412.1,505.99 394.4,198.72 875.1,40.17 1073.9,-354.13 27.4,-54.51 48.1,-110.7 62.2,-167.53 -1.4,5.37 -2.7,10.77 -4.2,16.14 h 98 v 541.08 c 0,18.05 13.6,32.93 31.1,34.95 1.4,0.14 2.7,0.26 4.1,0.26 h 147.1 v 73.32 c 0,46.36 -47,117.98 -111.5,169.62 l -660,502.53 h -86 l -645.3,1211.69 h 90.9 l -4.1,11.32 c -17.4,51.29 -37.5,83.97 -83.9,83.97 H 9402.82 c -46.38,0 -92.65,-38.17 -129.09,-95.29 h 76.2 L 8757.14,4871.2 H 8576.96 L 8161.8,4674.21 7461.4,4341.88 c -67.63,-24.85 -115.57,-96.47 -115.57,-142.83" /><path
         id="path72"
         style="fill:#e21c77;fill-opacity:1;fill-rule:nonzero;stroke:none"
         d="m 9732.43,3533.42 c -14.11,56.8 -34.74,112.93 -62.2,167.41 27.49,-54.51 48.12,-110.7 62.23,-167.53 0,0.03 0,0.06 -0.03,0.12" /><path
         id="path74"
         style="fill:#e21c77;fill-opacity:1;fill-rule:nonzero;stroke:none"
         d="m 9748.77,3447.86 c -3.66,27.26 -8.8,54.48 -15.4,81.54 6.01,-24.65 10.77,-49.44 14.35,-74.26 0.35,-2.41 0.73,-4.84 1.05,-7.28 v 0" /><path
         id="path76"
         style="fill:#e21c77;fill-opacity:1;fill-rule:nonzero;stroke:none"
         d="m 9732.49,3533.24 c 6.42,-25.91 11.44,-51.99 15.23,-78.1 -3.58,24.82 -8.34,49.61 -14.35,74.26 -0.29,1.29 -0.56,2.58 -0.88,3.84" /><path
         id="path78"
         style="fill:#e21c77;fill-opacity:1;fill-rule:nonzero;stroke:none"
         d="m 9755.67,3361.66 v 0 c -0.15,6.04 -0.41,12.12 -0.71,18.16 0.3,-6.04 0.53,-12.12 0.71,-18.16" /><path
         id="path80"
         style="fill:#e21c77;fill-opacity:1;fill-rule:nonzero;stroke:none"
         d="m 9754.85,3382.4 c 0.35,-6.92 0.64,-13.85 0.82,-20.74 -0.18,6.04 -0.41,12.12 -0.71,18.16 -0.05,0.85 -0.05,1.73 -0.11,2.58" /><path
         id="path82"
         style="fill:#e21c77;fill-opacity:1;fill-rule:nonzero;stroke:none"
         d="m 13429.3,3533.24 c 14.1,-56.83 21.7,-114.31 23.2,-171.52 -1.5,57.21 -9.1,114.69 -23.2,171.52" /><path
         id="path84"
         style="fill:#182b35;fill-opacity:1;fill-rule:nonzero;stroke:none"
         d="m 5796.12,5236.69 c 13.32,29.63 28.87,58.33 46.56,85.79 4.43,6.9 9.01,13.7 13.7,20.42 57.62,82.48 135.17,152.63 229.97,202.39 3.26,1.73 6.51,3.46 9.8,5.1 3.58,1.82 7.16,3.5 10.74,5.14 32.01,14.49 63.78,21.6 96.76,21.6 51.2,0 101.84,-16.47 157.47,-38.24 -9.92,24.38 -11.89,34.42 -3.61,25.88 7.72,-7.92 23.62,-22.74 45.89,-42.86 38.96,-15.85 79.24,-32.19 122.76,-45.71 39.43,-12.27 80.3,-22.31 119.82,-31.99 17.02,-4.19 33.92,-8.33 50.55,-12.61 7.9,-2.03 15.73,-4.11 23.51,-6.22 107.35,-29.17 202,-67.78 250.09,-163.19 39.11,-77.64 28.66,-153.83 3.23,-236.31 14.9,-12.79 29.45,-25.32 43.57,-37.43 17.36,-14.94 34.06,-29.29 49.93,-42.93 16.9,48.56 32.16,98.35 39.17,149.31 10.97,79.9 -0.15,151.43 -34.06,218.67 -82.56,163.84 -250.57,205.09 -398.79,241.47 -39.64,9.71 -77.05,18.92 -113.2,30.14 -38.93,12.08 -76.98,27.55 -113.78,42.51 -76.9,31.24 -156.44,63.55 -242.55,63.55 -54.9,0 -106.86,-12.71 -158.82,-38.91 -163.86,-82.59 -289.97,-218.05 -360.32,-385.35 l 81.1,-21.95 30.51,-8.27" /><path
         id="path86"
         style="fill:#182b35;fill-opacity:1;fill-rule:nonzero;stroke:none"
         d="m 6695.59,4395.6 c -4.46,-2.55 -8.97,-5.01 -13.7,-7.39 -2.2,-1.12 -4.43,-2.14 -6.66,-3.14 -16.81,-7.39 -34.06,-11 -52.6,-11 v 0 c -42.84,0 -89.9,19.01 -139.69,39.14 -39.14,15.81 -79.34,32.04 -122.47,41.57 -2.81,0.62 -5.63,1.2 -8.45,1.76 -8.01,1.59 -16.11,2.96 -24.35,4.02 -25.94,3.37 -52.11,6.34 -77.4,9.24 -8.68,1 -17.34,1.97 -25.91,2.97 l 16.08,-31.93 13.61,-27.02 c 6.84,-13.58 1.38,-30.13 -12.17,-36.96 l -33.77,-17.02 c 9.77,-1.15 19.54,-2.26 29.25,-3.35 24.88,-2.85 50.58,-5.78 75.73,-9.04 41.31,-5.34 82.97,-22.18 127.1,-39.99 57.74,-23.32 117.42,-47.44 182.44,-47.44 v 0 c 38.69,0 75.9,8.86 110.61,26.35 85.11,42.9 138.78,103.22 175.92,171.99 -13,24.77 -27.14,51.78 -42.25,80.63 -8.3,15.84 -16.87,32.21 -25.67,49.05 -28.08,-80.86 -68.07,-148.4 -145.65,-192.44" /><path
         id="path88"
         style="fill:#182b35;fill-opacity:1;fill-rule:nonzero;stroke:none"
         d="m 5633.05,4851.46 c 6.83,-43.57 17.51,-86.64 31.98,-128.83 l 55.42,27.16 19.92,9.78 28.11,13.79 c -29.93,94.64 -37,192.67 -23.5,287.09 l -30.43,8.24 -80.74,21.89 c -12.97,-79.63 -13.15,-160.17 -0.76,-239.12" /><path
         id="path90"
         style="fill:#182b35;fill-opacity:1;fill-rule:nonzero;stroke:none"
         d="m 5782.95,4541.25 213.73,-63.96 5.32,2.69 43.27,21.81 c -76.72,19.27 -143.03,50.25 -193.23,108.17 l -28.96,-14.2 -42.45,-20.8 -33.6,-16.46 c 2.14,-2.85 4.29,-5.66 6.45,-8.42 l 29.47,-8.83" /><path
         id="path92"
         style="fill:#182b35;fill-opacity:1;fill-rule:nonzero;stroke:none"
         d="m 3998.07,2963.31 c 15.85,0 32.1,1.12 48.27,3.26 81.18,10.88 144.85,45.86 197.87,92.65 65.69,58.01 114.98,134.15 160.9,205.06 22.18,34.24 43.1,66.6 65.54,97.06 24.18,32.83 51.26,63.72 77.46,93.59 87.2,99.46 177.36,202.33 154.74,371.15 -24.71,184.73 -115.78,353.7 -256.34,475.78 -98.35,85.38 -215.89,143.65 -341.08,170.59 -14.41,-6.72 -28.75,-12.71 -43.01,-17.93 -45.19,-16.52 -89.78,-25.56 -132.74,-27.11 l 3.35,-21.27 4.84,-30.81 c 2.61,0.03 5.25,0.09 7.86,0.09 205.29,0 391.63,-97.41 511.6,-250.57 5.08,-6.45 10.01,-12.99 14.82,-19.63 59.3,-81.85 100.17,-178.21 116.07,-283.33 0.56,-3.64 1.11,-7.28 1.58,-10.94 0.56,-4 0.97,-7.93 1.33,-11.8 10.08,-110.58 -51.5,-180.85 -128.78,-269.05 -27.76,-31.66 -56.45,-64.4 -83.5,-101.1 -24.5,-33.25 -47.39,-68.57 -69.48,-102.75 -9.53,-14.7 -18.98,-29.31 -28.49,-43.63 -4.52,-6.81 -9.04,-13.53 -13.55,-20.19 -62.73,-91.83 -130.21,-168.64 -236.13,-182.82 -11.18,-1.49 -22.33,-2.25 -33.13,-2.25 -0.03,0 -0.03,0 -0.03,0 -95.73,0.03 -170.43,58.15 -255.52,126.92 -2.61,2.11 -5.22,4.22 -7.86,6.37 -1.64,1.32 -3.32,2.67 -4.96,4.02 -29.75,24.06 -60.47,48.73 -93.01,71.35 -26.84,18.66 -54.13,36.36 -80.51,53.49 -18.72,12.15 -37.05,24.03 -54.77,35.97 -6.75,4.55 -13.41,9.07 -19.95,13.64 -89.05,61.91 -159.44,127.37 -179.1,233.76 -0.93,5.04 -1.79,10.15 -2.49,15.37 -0.32,2.46 -0.56,4.9 -0.76,7.33 -4.99,60.68 31.21,105.66 89.54,172.46 27.79,31.84 56.31,64.52 79.46,102.17 1.46,2.4 2.9,4.81 4.34,7.24 4.14,7.07 8.12,14.32 11.82,21.77 11.68,23.42 23.06,47.15 34.07,70.1 24.99,52.11 48.99,102.1 75.22,147.25 4.2,7.22 8.45,14.29 12.77,21.25 40.57,65.37 87.4,118.85 151.51,151.27 l -5.14,32.63 -13.23,84.23 c -65.37,-25.9 -122.26,-68.04 -172.14,-127.3 -63.02,-74.91 -108.14,-169 -151.83,-259.98 -10.83,-22.6 -22.04,-45.92 -33.3,-68.6 -18.57,-37.29 -48.15,-71.15 -79.45,-107 -61.79,-70.77 -131.83,-151.02 -115.93,-269.96 26.41,-197.05 169.18,-289.7 307.28,-379.28 25.64,-16.63 52.14,-33.83 77.46,-51.43 30.95,-21.54 61.64,-46.39 91.36,-70.42 38.91,-31.48 78.34,-63.37 120.71,-90.25 62.55,-39.73 131.47,-68.42 214.41,-68.42 0,0 0,0 0.03,0" /><path
         id="path94"
         style="fill:#182b35;fill-opacity:1;fill-rule:nonzero;stroke:none"
         d="m 4774.35,6458.03 c 0.41,-1.35 0.85,-2.7 1.29,-4.05 59.91,-184.37 185.96,-308.45 282.81,-277.64 97.59,31.04 61.5,186.13 2.14,372.73 -59.35,186.63 -119.5,334.07 -217.05,303.05 -29.93,-9.53 -53.55,-32.71 -70.27,-65.66 -37.79,-74.52 -40.08,-199.01 1.08,-328.43" /><path
         id="path96"
         style="fill:#182b35;fill-opacity:1;fill-rule:nonzero;stroke:none"
         d="m 5826.57,7229.46 c 13.35,-32.83 30.28,-66.22 50.76,-99.1 103.48,-166.25 257.84,-257.17 344.74,-203.04 86.94,54.11 13.77,195.55 -89.71,361.79 -103.49,166.24 -198.11,294.31 -285.02,240.21 -10.59,-6.6 -19.71,-15.05 -27.34,-25.12 -42.57,-56.06 -39.29,-162.01 6.57,-274.74" /><path
         id="path98"
         style="fill:#182b35;fill-opacity:1;fill-rule:nonzero;stroke:none"
         d="m 4162.35,7107.73 -80.42,-124.34 -52.29,-80.86 c -2.81,-7.01 -11.29,-24.26 -21.91,-43.33 -5.87,-10.54 -12.39,-21.57 -18.96,-31.78 -11.32,-17.55 -22.82,-32.48 -31.48,-37.62 -38.08,-219.37 -11.03,-373.73 82.24,-470.64 50.7,-52.63 118.89,-84.09 197.2,-90.92 11.29,-1 22.79,-1.5 34.5,-1.5 59.06,0 123.55,12.59 195.99,38.17 l -5.87,16.58 -90.19,255.43 -5.81,16.49 c -66.13,-23.35 -97.23,-21.33 -106.5,-19.75 -6.43,13.09 -29.31,76.55 10.56,257.91 18.34,83.47 43.36,160.34 59.03,204.85 60.12,39.52 119.65,86.58 176.48,140.68 106.89,101.78 189.36,214.27 243.32,323.92 84.91,-28.14 300.82,-95.92 595.83,-161.05 l 3.76,17.01 58.45,264.74 3.78,17.02 c -317.19,70.03 -541.5,144.38 -589.26,160.69 -3.99,68.95 -26.53,128.86 -69.39,173.9 -11.24,11.8 -23.59,22.21 -36.91,31.37 -0.44,-2.06 -1.03,-4.08 -1.85,-6.11 l -550.3,-850.86" /><path
         id="path100"
         style="fill:#182b35;fill-opacity:1;fill-rule:nonzero;stroke:none"
         d="m 9343.79,3224.46 c -25.82,-85.93 -79.42,-159.84 -150.4,-211.3 -66.62,-48.29 -148.54,-76.78 -237.15,-76.78 -82.85,0 -159.87,24.94 -224.01,67.66 -77.49,51.6 -136.14,129.24 -163.51,220.42 -11.09,36.92 -17.05,76 -17.05,116.52 0,223.45 181.12,404.59 404.57,404.59 223.46,0 404.6,-181.14 404.6,-404.59 0,-40.52 -5.98,-79.6 -17.05,-116.52 z m 261.54,443.66 c -180.68,358.47 -617.72,502.59 -976.2,321.94 -290.35,-146.35 -440.07,-460.87 -390.49,-765.6 11.62,-71.5 34.18,-142.47 68.54,-210.6 3.67,-7.3 7.48,-14.49 11.39,-21.62 187.07,-342.57 613.64,-477.33 964.81,-300.35 146.17,73.67 256.7,190 324.12,326.26 32.19,65.05 54.52,134.64 66.19,206.31 23.88,146.3 3.44,301.15 -68.36,443.66" /><path
         id="path102"
         style="fill:#182b35;fill-opacity:1;fill-rule:nonzero;stroke:none"
         d="m 13040.6,3224.46 c -38.3,-127.53 -137.8,-228.58 -264.4,-268.98 -38.9,-12.38 -80.2,-19.1 -123.1,-19.1 -57.8,0 -112.7,12.14 -162.4,33.94 -107.8,47.27 -190.9,140.1 -225.2,254.14 -11,36.92 -17,76 -17,116.52 0,223.45 181.1,404.59 404.6,404.59 223.4,0 404.5,-181.14 404.5,-404.59 0,-40.52 -5.9,-79.6 -17,-116.52 z m 261.5,443.66 c -180.6,358.47 -617.7,502.59 -976.2,321.94 -290.3,-146.35 -440,-460.87 -390.4,-765.6 11.6,-71.5 34.2,-142.47 68.5,-210.6 4.1,-8.21 8.4,-16.22 12.8,-24.2 187.8,-340.67 613.1,-474.31 963.4,-297.77 111,55.98 201.5,136.57 268.1,231.78 63,89.99 104.6,193.06 122.2,300.79 23.9,146.3 3.5,301.15 -68.4,443.66" /><path
         id="path104"
         style="fill:#c01555;fill-opacity:1;fill-rule:nonzero;stroke:none"
         d="m 3965.36,8007.47 c -51.58,-336.67 -302.11,-546.04 -503.74,-682.68 -28.05,-19.01 -55.13,-36.62 -80.62,-52.96 -57.22,-36.7 -123.64,-78.16 -197.55,-116.8 l 183.49,-87.87 582.52,-278.91 c 2.17,-0.88 4.84,-0.23 7.83,1.55 8.66,5.14 20.16,20.07 31.48,37.62 6.57,10.21 13.09,21.24 18.96,31.78 10.62,19.07 19.1,36.32 21.91,43.33 l 52.29,80.86 80.42,124.34 550.3,850.86 c 0.82,2.03 1.41,4.05 1.85,6.11 4.11,18.04 -4.73,36.58 -21.62,43.33 l -599.27,182.08 -123.41,37.5 c 7.86,-78.9 5.57,-152.1 -4.84,-220.14" /><path
         id="path106"
         style="fill:#c01555;fill-opacity:1;fill-rule:nonzero;stroke:none"
         d="m 1340.05,8091.56 c 0,0 43.23,9.71 120.97,34.07 12.52,3.9 25.91,8.21 40.18,12.91 138.05,45.41 356.52,128.27 622.91,267.19 309.96,161.64 852.11,596.16 1179.13,867.94 39.49,32.83 75.85,63.26 108.27,90.57 101.9,85.8 165.06,140.6 165.06,140.6 v 0 c 22.04,68.8 24.56,104.57 34.92,182.03 -0.03,-0.03 -0.03,-0.03 -0.06,-0.03 -18.6,-11.91 -40.84,-26.73 -66.25,-44.04 -57.04,-38.79 -130.3,-90.28 -215.77,-150.58 -44.45,-31.36 -92.18,-65.07 -142.68,-100.66 -519.02,-365.78 -1326.45,-925.42 -1801.74,-1084.32 -11.38,-3.81 -22.58,-7.39 -33.57,-10.74 -52.3,-15.87 -100.09,-26.34 -142.46,-30.57 -39.31,-3.9 -74,-2.5 -103.23,5.07 54.68,-83.47 200.57,-160.75 234.31,-179.44 0.01,0 0.01,0 0.01,0" /><path
         id="path108"
         style="fill:#c01555;fill-opacity:1;fill-rule:nonzero;stroke:none"
         d="m 9294.06,4663.62 c 13.29,88.64 16.99,155.8 11.89,207.58 -8.49,86.18 -41.4,129.75 -95.15,158.68 -27.94,15.01 -61.5,26.11 -100.2,37.17 -39.93,11.38 -79.46,7.42 -117.24,-6.25 -155.86,-56.45 -281.79,-279.11 -281.79,-279.11 0,0 0,0 0,-124.23 0,-124.25 551.01,-203.5 582.49,6.16" /><path
         id="path110"
         style="fill:#daeef5;fill-opacity:1;fill-rule:nonzero;stroke:none"
         d="m 5147.41,4638.63 171.11,-14.85 -20.33,50.85 -100.29,30.01 c -20.83,-19.13 -37.79,-41.55 -50.49,-66.01" /><path
         id="path112"
         style="fill:#daeef5;fill-opacity:1;fill-rule:nonzero;stroke:none"
         d="m 5007.22,4761.71 -128.15,38.34 c -48.53,14.56 -99.67,-13.02 -114.19,-61.58 -6.96,-23.21 -4.23,-47.03 5.78,-67.16 l 155.82,-13.52 30.07,-2.62 c 2.29,7.22 4.75,14.41 7.4,21.51 11.18,29.78 25.64,58.33 43.27,85.03" /><path
         id="path114"
         style="fill:#daeef5;fill-opacity:1;fill-rule:nonzero;stroke:none"
         d="m 5748.23,4360.13 10.01,-3.02 146.23,73.7 92.21,46.48 -213.73,63.96 -29.47,8.83 -14.66,4.37 -149.96,44.89 -71.5,21.39 -37.38,11.2 -5.05,1.5 c -15.29,4.58 -30.77,4.99 -45.36,1.88 -31.71,-6.75 -58.88,-30.19 -68.83,-63.46 -7.66,-25.5 -3.64,-51.73 8.92,-72.97 11.32,-19.19 29.63,-34.33 52.66,-41.22 l 28.61,-8.57 45.13,-13.5 h 0.06 l 74.23,-22.24 177.88,-53.22" /><path
         id="path116"
         style="fill:#daeef5;fill-opacity:1;fill-rule:nonzero;stroke:none"
         d="m 9732.49,3533.24 c 7.04,-28.31 12.44,-56.83 16.28,-85.38 0.03,-0.03 0.03,-0.09 0.03,-0.12 0,0.03 0,0.09 -0.03,0.12 0.03,-0.03 0.03,-0.09 0.03,-0.12 0,-0.08 0.03,-0.14 0.03,-0.23 0.94,-6.92 1.76,-13.85 2.53,-20.8 0.02,-0.39 0.05,-0.8 0.11,-1.17 0.71,-6.79 1.35,-13.56 1.88,-20.31 0.06,-0.5 0.09,-1 0.12,-1.5 0.53,-6.75 0.99,-13.52 1.35,-20.27 0,-0.35 0.03,-0.71 0.03,-1.06 0.35,-6.92 0.64,-13.85 0.82,-20.74 1.14,-46.09 -1.71,-91.98 -8.42,-137.2 -4.29,-28.95 -10.16,-57.62 -17.55,-85.84 h 2149.7 c -7.4,28.46 -13.2,57.12 -17.5,85.84 -7.2,48.71 -9.7,97.59 -7.9,146.06 0,0.56 0,1.12 0,1.68 0.2,3.63 0.4,7.27 0.6,10.91 0,0.73 0.1,1.44 0.1,2.17 0.2,3.52 0.4,7.04 0.7,10.53 0,0.85 0.1,1.67 0.1,2.53 0.3,3.4 0.6,6.83 0.9,10.27 0,0.91 0.1,1.81 0.2,2.72 0.3,3.35 0.6,6.72 1,10.07 0,0.96 0.1,1.93 0.3,2.9 0.3,3.32 0.7,6.63 1.1,9.92 0.1,0.99 0.2,1.99 0.3,3.02 0.4,3.26 0.8,6.54 1.3,9.83 0.1,1 0.2,2.02 0.4,3.02 0.5,3.29 0.9,6.54 1.4,9.8 0.2,1.03 0.3,2.02 0.5,3.02 0.5,3.26 1,6.55 1.6,9.83 0.1,0.97 0.3,1.94 0.5,2.91 0.5,3.31 1.1,6.6 1.7,9.85 0.2,0.97 0.4,1.91 0.5,2.85 0.7,3.31 1.3,6.63 2,9.92 0.2,0.91 0.4,1.79 0.5,2.69 0.7,3.35 1.4,6.7 2.1,10.07 0.2,0.82 0.4,1.61 0.6,2.43 0.8,3.44 1.5,6.84 2.3,10.24 0.2,0.74 0.4,1.47 0.6,2.21 0.8,3.49 1.6,6.98 2.5,10.47 0.2,0.62 0.3,1.2 0.5,1.82 0.9,3.61 1.8,7.19 2.8,10.77 0,0.14 0.1,0.32 0.1,0.47 H 9728.29 c 1.47,-5.37 2.85,-10.77 4.17,-16.14 0,-0.03 0.03,-0.03 0.03,-0.06" /><path
         id="path118"
         style="fill:#daeef5;fill-opacity:1;fill-rule:nonzero;stroke:none"
         d="m 9753.47,3403.73 c -0.03,0.5 -0.06,1 -0.12,1.5 0.06,-0.5 0.09,-1 0.12,-1.5" /><path
         id="path120"
         style="fill:#daeef5;fill-opacity:1;fill-rule:nonzero;stroke:none"
         d="m 9748.83,3447.51 c 0,0.09 -0.03,0.15 -0.03,0.23 0,-0.08 0.03,-0.14 0.03,-0.23" /><path
         id="path122"
         style="fill:#daeef5;fill-opacity:1;fill-rule:nonzero;stroke:none"
         d="m 9732.49,3533.24 c 0,0.03 -0.03,0.03 -0.03,0.06 0,-0.03 0.03,-0.03 0.03,-0.06" /><path
         id="path124"
         style="fill:#daeef5;fill-opacity:1;fill-rule:nonzero;stroke:none"
         d="m 9754.85,3382.4 c 0,0.35 -0.03,0.71 -0.03,1.06 0,-0.35 0.03,-0.71 0.03,-1.06" /><path
         id="path126"
         style="fill:#daeef5;fill-opacity:1;fill-rule:nonzero;stroke:none"
         d="m 9751.47,3425.54 c -0.06,0.37 -0.09,0.78 -0.11,1.17 0.02,-0.39 0.05,-0.8 0.11,-1.17" /><path
         id="path128"
         style="fill:#daeef5;fill-opacity:1;fill-rule:nonzero;stroke:none"
         d="m 9748.8,3447.74 c 0,0.03 0,0.09 -0.03,0.12 v 0 c 0.03,-0.03 0.03,-0.09 0.03,-0.12" /><path
         id="path130"
         style="fill:#daeef5;fill-opacity:1;fill-rule:nonzero;stroke:none"
         d="m 13554.2,3549.44 h -129.1 c 1.5,-5.37 2.8,-10.77 4.2,-16.14 0,-0.03 0,-0.06 0,-0.06 14.1,-56.83 21.7,-114.31 23.2,-171.52 1.1,-46.09 -1.7,-92.04 -8.4,-137.26 -4.3,-28.95 -10.2,-57.62 -17.6,-85.84 h 316.4 c 46.4,0 84,37.58 84,83.97 v 242.87 c 0,46.36 -37.6,83.98 -84,83.98 h -188.7" /><path
         id="path132"
         style="fill:#daeef5;fill-opacity:1;fill-rule:nonzero;stroke:none"
         d="m 8956.24,3590.25 c -137.66,0 -249.24,-111.61 -249.24,-249.27 0,-42.11 10.47,-81.75 28.9,-116.52 41.83,-78.95 124.78,-132.76 220.34,-132.76 95.56,0 178.53,53.81 220.37,132.76 18.43,34.77 28.9,74.41 28.9,116.52 0,137.66 -111.61,249.27 -249.27,249.27" /><path
         id="path134"
         style="fill:#daeef5;fill-opacity:1;fill-rule:nonzero;stroke:none"
         d="m 12653.1,3590.25 c -137.7,0 -249.3,-111.61 -249.3,-249.27 0,-42.11 10.5,-81.75 28.9,-116.52 41.8,-78.95 124.8,-132.76 220.4,-132.76 95.5,0 178.5,53.81 220.3,132.76 18.5,34.77 28.9,74.41 28.9,116.52 0,137.66 -111.6,249.27 -249.2,249.27" /><path
         id="path136"
         style="fill:#daeef5;fill-opacity:1;fill-rule:nonzero;stroke:none"
         d="m 7311.09,3138.62 h 871.54 c -7.48,28.46 -13.29,57.12 -17.51,85.84 -7.22,48.8 -9.8,97.77 -7.96,146.33 0.04,0.44 0.04,0.87 0.06,1.32 0.15,3.75 0.33,7.51 0.53,11.23 0.03,0.62 0.06,1.23 0.09,1.85 0.21,3.61 0.44,7.19 0.7,10.8 0.06,0.76 0.09,1.53 0.15,2.26 0.27,3.49 0.56,7.01 0.85,10.47 0.06,0.85 0.15,1.7 0.21,2.55 0.32,3.41 0.64,6.84 1,10.27 0.08,0.88 0.17,1.79 0.26,2.7 0.35,3.35 0.73,6.72 1.14,10.1 0.12,0.93 0.24,1.87 0.33,2.84 0.41,3.32 0.85,6.63 1.29,9.98 0.14,0.94 0.26,1.9 0.41,2.87 0.44,3.32 0.94,6.6 1.44,9.92 0.14,0.97 0.29,1.96 0.43,2.93 0.5,3.29 1.03,6.58 1.59,9.86 0.18,0.97 0.32,1.94 0.5,2.91 0.56,3.28 1.15,6.57 1.76,9.85 0.17,0.97 0.35,1.91 0.53,2.85 0.61,3.31 1.26,6.6 1.93,9.92 0.18,0.91 0.35,1.82 0.56,2.73 0.68,3.31 1.38,6.66 2.12,9.97 0.17,0.85 0.35,1.7 0.55,2.55 0.73,3.38 1.53,6.78 2.32,10.12 0.18,0.8 0.35,1.59 0.55,2.35 0.8,3.44 1.65,6.87 2.5,10.3 0.18,0.68 0.38,1.38 0.56,2.09 0.88,3.49 1.79,7.01 2.73,10.5 0.05,0.17 0.11,0.35 0.14,0.56 h -873.3 v 0 c -46.36,0 -83.97,-37.62 -83.97,-83.98 v -242.87 c 0,-46.39 37.61,-83.97 83.97,-83.97" /><path
         id="path138"
         style="fill:#edf9fe;fill-opacity:1;fill-rule:nonzero;stroke:none"
         d="m 5747.03,4558.5 -8.21,-4.05 14.66,-4.37 c -2.16,2.76 -4.31,5.57 -6.45,8.42" /><path
         id="path140"
         style="fill:#edf9fe;fill-opacity:1;fill-rule:nonzero;stroke:none"
         d="m 5141.13,4165.78 c 66.19,-39.9 141.95,-60.99 219.14,-60.99 65.55,0 131.33,15.69 190.21,45.35 43.63,22.01 81.83,50.61 113.96,83.97 l -18.05,35.83 c -6.83,13.55 -1.37,30.1 12.18,36.94 l 85.03,42.86 c 1.58,3.44 3.14,6.9 4.63,10.39 l -177.88,53.22 c -22.48,-41.37 -57.3,-76.6 -102.46,-99.34 -33.86,-17.08 -70.06,-25.73 -107.62,-25.73 -91.22,0 -173.37,50.55 -214.36,131.91 -5.86,11.65 -10.68,23.59 -14.49,35.65 l -190.97,16.57 c 6.04,-45.77 19.68,-91.3 41.6,-134.81 35.94,-71.3 90.95,-130.71 159.08,-171.82" /><path
         id="path142"
         style="fill:#edf9fe;fill-opacity:1;fill-rule:nonzero;stroke:none"
         d="m 5578.86,4890.36 c -58.8,35.48 -125.2,56.04 -193.41,60.18 l 83.47,-208.7 c 33.62,-17.1 62.99,-42.13 85.49,-73.43 l 110.62,54.22 c -14.47,42.19 -25.15,85.26 -31.98,128.83 -16.96,14.31 -35.04,27.37 -54.19,38.9" /><path
         id="path144"
         style="fill:#edf9fe;fill-opacity:1;fill-rule:nonzero;stroke:none"
         d="m 5101.35,4863.11 c -37.35,-28.84 -68.95,-63.23 -94.13,-101.4 -17.63,-26.7 -32.09,-55.25 -43.27,-85.03 -2.65,-7.1 -5.11,-14.29 -7.4,-21.51 l 190.86,-16.54 c 12.7,24.46 29.66,46.88 50.49,66.01 15.9,14.61 33.98,27.34 54.19,37.53 5.32,2.69 10.71,5.13 16.14,7.39 l -68.12,170.32 c -10.36,-4.23 -20.6,-8.83 -30.58,-13.85 -24.49,-12.35 -47.24,-26.79 -68.18,-42.92" /><path
         id="path146"
         style="fill:#edf9fe;fill-opacity:1;fill-rule:nonzero;stroke:none"
         d="m 6115.19,5150.23 26.2,-7.1 -12.26,8.12 c -4.43,2.94 -10.13,2.35 -13.94,-1.02" /><path
         id="path148"
         style="fill:#edf9fe;fill-opacity:1;fill-rule:nonzero;stroke:none"
         d="m 6052.79,4968.38 40.89,-2.44 -51.63,14 c -0.09,-6.08 4.6,-11.21 10.74,-11.56" /><path
         id="path150"
         style="fill:#edf9fe;fill-opacity:1;fill-rule:nonzero;stroke:none"
         d="m 6045.27,4501.79 30.02,15.1 42.13,21.25 6.25,3.16 c -1.23,0.18 -2.47,0.36 -3.73,0.56 l 176.63,260.01 c 20.8,-11.47 43.6,-18.98 67.16,-22.15 l -5.75,-133.52 c -0.27,-6.34 4.63,-11.68 10.97,-11.98 0.15,0 0.32,0 0.5,0 6.1,0 11.18,4.82 11.44,10.98 l 5.72,132.85 c 27.05,-0.35 54.55,5.02 80.66,16.75 l 182.93,-360.44 c -14.78,-6.4 -29.86,-9.54 -45.91,-9.54 h -0.03 c -41.26,0 -85.73,20.45 -132.85,42.11 -30.4,13.99 -61.53,28.25 -94.3,38.43 4.37,11.53 10,23.91 15.81,34.77 2.99,5.6 0.88,12.56 -4.69,15.52 -5.58,2.99 -12.53,0.88 -15.52,-4.69 -2.82,-5.25 -11.21,-21.45 -17.81,-39.41 -9.33,2.26 -18.81,4.11 -28.43,5.49 -33.98,4.87 -68.07,8.51 -101.05,12 -10.47,1.12 -20.83,2.23 -31.13,3.35 l 30.07,-59.62 c 8.57,-1 17.23,-1.97 25.91,-2.97 25.29,-2.9 51.46,-5.87 77.4,-9.24 8.24,-1.06 16.34,-2.43 24.35,-4.02 2.82,-0.56 5.64,-1.14 8.45,-1.76 43.13,-9.53 83.33,-25.76 122.47,-41.57 49.79,-20.13 96.85,-39.14 139.69,-39.14 v 0 c 18.54,0 35.79,3.61 52.6,11 2.23,1 4.46,2.02 6.66,3.14 4.73,2.38 9.24,4.84 13.7,7.39 77.58,44.04 117.57,111.58 145.65,192.44 -8.45,16.2 -17.14,32.78 -26,49.76 -29.25,-81.24 -68.19,-149.31 -144.64,-192.94 l -183.03,360.56 c 20.69,12.42 38.29,28.23 52.4,46.36 l 249.98,-165.48 c -7.19,13.82 -14.49,27.82 -21.86,41.96 l -215.18,142.44 c 12.3,20.51 20.69,43.14 24.71,66.64 l 84.67,-4.99 c -4.08,7.89 -8.15,15.78 -12.23,23.7 l -69.98,4.14 c 1.32,27.14 -3.14,54.87 -13.99,81.36 l 31.66,16.29 c -3.5,6.83 -6.99,13.61 -10.48,20.42 l -31.1,-16.02 c -11.94,21.56 -27.52,39.93 -45.56,54.78 l 32.5,47.85 c -3.98,7.83 -7.95,15.63 -11.88,23.35 l -39.2,-57.74 c -26.73,17.05 -57.36,27.26 -88.96,29.61 l 5.11,119.09 -6.34,3.4 c -28.2,15.11 -60.5,35.47 -68.83,44.63 0.62,3.02 0,6.31 -1.97,9 -3.72,5.14 -10.91,6.25 -16.02,2.53 -4.22,-3.08 -6.42,-7.78 -6.07,-12.94 0.32,-4.84 1.32,-19.37 75.7,-60 l -4.52,-105.42 c -21.95,-1 -43.98,-5.81 -65.19,-14.76 l -183.06,360.62 c 26.44,11.73 52.41,17.46 79.08,17.46 56.45,0 110.93,-24.91 174.04,-53.79 2.93,-1.34 5.93,-2.7 8.89,-4.04 -14.49,30.72 -25.67,55.54 -32.77,73.02 -55.63,21.77 -106.27,38.24 -157.47,38.24 -32.98,0 -64.75,-7.11 -96.76,-21.6 -3.58,-1.64 -7.16,-3.32 -10.74,-5.14 -3.29,-1.64 -6.54,-3.37 -9.8,-5.1 -94.8,-49.76 -172.35,-119.91 -229.97,-202.39 -4.69,-6.72 -9.27,-13.52 -13.7,-20.42 -17.69,-27.46 -33.24,-56.16 -46.56,-85.79 l 53.69,-14.55 c 14.32,30.72 31.13,59.91 50.2,87.43 l 104.04,-23.44 c 0.85,-0.2 1.7,-0.29 2.52,-0.29 5.25,0 9.98,3.61 11.18,8.95 1.41,6.19 -2.46,12.32 -8.65,13.7 l -94.42,21.27 c 51.93,68.48 118.59,125.19 196.67,166.3 l 182.99,-360.53 c -12.44,-7.07 -23.73,-15.38 -33.95,-24.65 l 53.84,-14.58 29.84,-8.1 15.79,-4.28 c 5.66,1.47 11.38,2.46 17.1,3.05 l -0.32,-7.6 22.68,-6.13 0.59,13.82 c 18.1,-1.67 35.59,-7.49 51.07,-16.99 l -8.15,-12.03 c 6.66,-3.9 12.79,-8.63 18.22,-13.99 l 8.24,12.14 c 8.46,-7.8 15.88,-16.96 21.92,-27.37 l -13.67,-7.04 c 3.55,-6.75 6.28,-14.03 8.1,-21.63 l 15.14,7.81 c 4.95,-14.26 7.04,-28.99 6.42,-43.48 l -20.04,1.2 c -1.14,-7.84 -3.31,-15.41 -6.39,-22.59 l 23.23,-1.38 c -2.58,-10.71 -6.6,-21.04 -12.03,-30.66 l -21.33,14.11 c -4.51,-6.25 -9.82,-12 -15.87,-16.99 l 24.03,-15.9 c -6.98,-8.13 -15.14,-15.38 -24.38,-21.48 l -14.08,27.73 c -1.18,-0.64 -2.32,-1.32 -3.55,-1.94 l -16.96,-8.3 14.31,-28.26 c -14.43,-5.98 -29.48,-8.89 -44.39,-8.97 l 1,22.97 -23.44,-11.5 -0.41,-9.36 c -4.2,0.79 -8.36,1.82 -12.44,3.08 l -31.46,-15.43 -41.54,-20.36 -7.72,-3.79 c 1.12,-0.85 2.29,-1.67 3.44,-2.49 l -182.12,-268.14 c -75.78,13.79 -141.88,37.2 -191.65,89.1 l -51.37,-25.17 c 50.2,-57.92 116.51,-88.9 193.23,-108.17" /><path
         id="path152"
         style="fill:#edf9fe;fill-opacity:1;fill-rule:nonzero;stroke:none"
         d="m 5768.48,4773.36 50.11,24.55 c -19.74,65.14 -27.99,132.73 -24.61,200.3 l 84.7,26 -41.52,11.27 -41.39,-12.74 c 0.7,7.75 1.58,15.49 2.58,23.24 l -53.37,14.47 c -13.5,-94.42 -6.43,-192.45 23.5,-287.09" /><path
         id="path154"
         style="fill:#edf9fe;fill-opacity:1;fill-rule:nonzero;stroke:none"
         d="m 6638.97,5387.59 c 8.1,-1.7 16.16,-3.43 24.17,-5.17 l -37.87,-55.77 c 5.78,-5.02 11.59,-10.06 17.43,-15.14 l 44.56,65.63 c 96.12,-21.74 182.55,-50.02 228.27,-130.03 l -124.52,-64.05 c 6.25,-5.4 12.5,-10.8 18.72,-16.17 l 116.18,59.77 c 26.61,-58.74 28.08,-115.87 17.25,-174.78 10.22,-8.8 20.28,-17.46 30.2,-26 25.43,82.48 35.88,158.67 -3.23,236.31 -48.09,95.41 -142.74,134.02 -250.09,163.19 -7.78,2.11 -15.61,4.19 -23.51,6.22 -16.63,4.28 -33.53,8.42 -50.55,12.61 -39.52,9.68 -80.39,19.72 -119.82,31.99 -43.52,13.52 -83.8,29.86 -122.76,45.71 30.1,-27.23 71.85,-64.14 120.73,-106.98 37.73,-11.03 76.87,-19.3 114.84,-27.34" /><path
         id="path156"
         style="fill:#edf9fe;fill-opacity:1;fill-rule:nonzero;stroke:none"
         d="m 6350.09,5391.96 c 2.25,-2.35 5.28,-3.55 8.3,-3.55 2.84,0 5.69,1.05 7.92,3.17 l 43.31,41.28 c -3.64,7.51 -7.1,14.76 -10.42,21.77 l -48.7,-46.45 c -4.61,-4.37 -4.79,-11.64 -0.41,-16.22" /><path
         id="path158"
         style="fill:#edf9fe;fill-opacity:1;fill-rule:nonzero;stroke:none"
         d="m 4419.16,3564.43 c -5.16,-5.4 -10.32,-10.83 -15.52,-16.31 l -31.51,69.12 c -2.64,5.78 -9.42,8.3 -15.2,5.69 -5.75,-2.64 -8.3,-9.45 -5.66,-15.2 l 35.41,-77.69 c -19.3,-20.89 -38.43,-42.86 -56.45,-67.16 -26.23,-35.38 -49.52,-74.05 -72.06,-111.46 -4.28,-7.07 -8.53,-14.14 -12.79,-21.15 l -58.65,78.69 -61.32,26.9 3.64,50.52 -65.66,88.11 c 24.88,19.66 44.53,45.24 57.12,74.35 l 104.13,-41.19 6.69,-2.64 5.28,4.87 c 23.53,21.68 53.37,45.53 64.72,50.4 2.67,-1.55 5.96,-2.05 9.19,-1.08 6.04,1.85 9.44,8.24 7.59,14.32 -1.49,4.98 -5.22,8.62 -10.2,9.97 -4.7,1.26 -18.75,5.08 -81.51,-51.87 l -98.11,38.81 c 6.25,21.04 8.91,43.46 7.42,66.43 l 400.63,54.81 c 8.02,-96.18 -47.52,-154.36 -117.18,-227.24 z m -384.32,-428.3 -56.95,400.1 c 24.29,4.23 46.74,12.94 66.66,25.12 l 61,-81.83 -4.17,-58.18 70.59,-30.93 60.5,-81.21 c -52.02,-83.65 -107.06,-156.06 -197.63,-173.07 z m -47.54,-4.26 v 0 c -89.07,0.03 -162.19,47.09 -235.77,103.81 l -4.55,87.28 c -0.32,6.31 -5.75,11.27 -12.06,10.86 -6.31,-0.33 -11.17,-5.73 -10.85,-12.06 l 3.52,-67.37 c -5.55,4.38 -11.09,8.77 -16.67,13.18 -21.21,16.84 -43.15,34.27 -65.66,50.96 -19.8,14.7 -40.05,29.02 -59.65,42.86 -18.13,12.83 -35.88,25.36 -52.98,37.94 L 3798,3602.04 c 15.35,-18.33 33.98,-33.65 54.87,-45.15 l -66.75,-161.11 c -2.43,-5.83 0.35,-12.55 6.22,-14.96 1.44,-0.62 2.91,-0.88 4.37,-0.88 4.49,0 8.77,2.64 10.59,7.07 l 66.34,160.08 c 25.21,-10.15 52.88,-15.02 81.45,-13.44 l 57.01,-400.58 c -8.33,-0.76 -16.67,-1.2 -24.8,-1.2 z m -630.19,498.49 400.61,54.8 c 4.96,-23.62 14.11,-45.41 26.64,-64.66 l -270.84,-206.91 c -77.54,59.12 -138.57,121.18 -156.41,216.77 z m 86.12,181 c 23.15,24.14 46.82,48.85 67.18,76.48 9.45,-7.89 19.31,-17.28 27.67,-26.34 2.26,-2.44 5.34,-3.67 8.42,-3.67 2.79,0 5.58,1 7.78,3.02 4.66,4.31 4.95,11.56 0.64,16.22 -4.04,4.38 -16.6,17.61 -31.39,29.73 5.19,8.07 10.06,16.4 14.52,25.06 15.7,30.51 30.31,61.55 44.42,91.53 15.61,33.22 30.75,65.34 46.66,95.45 l 187.8,-252.03 c -17.63,-15.9 -32.22,-34.98 -42.93,-56.19 l -124.28,49.17 c -5.9,2.32 -12.56,-0.55 -14.88,-6.45 -2.34,-5.9 0.56,-12.56 6.43,-14.88 l 123.67,-48.93 c -9.21,-25.44 -13.15,-53.17 -10.62,-81.69 l -400.46,-54.77 c -4.35,57.27 31.57,98.02 89.37,158.29 z m 723.84,465.62 -4.72,-131.21 c -0.24,-6.31 4.72,-11.62 11.06,-11.85 0.14,0 0.27,0 0.41,0 6.13,0 11.24,4.84 11.44,11.03 l 4.4,122.32 c 94.1,-42.72 175.75,-109.38 236.52,-192.65 l -55.9,-90.07 c -3.34,-5.4 -1.67,-12.44 3.7,-15.79 1.88,-1.17 3.99,-1.73 6.04,-1.73 3.85,0 7.57,1.94 9.74,5.43 l 50.7,81.68 c 47.09,-70.47 79.63,-151.74 93.04,-239.73 l -400.58,-54.78 c -5.13,27.55 -16.02,52.69 -31.22,74.41 l 100.2,76.51 c 5.02,3.84 5.98,11.06 2.14,16.08 -3.84,5.05 -11.03,6.01 -16.08,2.17 l -100.46,-76.75 c -18.66,20.83 -41.69,37.38 -67.45,48.44 l 55.25,133.32 c 2.4,5.84 -0.35,12.56 -6.22,14.99 -5.84,2.44 -12.56,-0.35 -14.97,-6.22 l -46.38,-111.96 4.22,-26.87 2.59,-16.58 12.14,-77.19 c 0.85,-0.83 1.7,-1.62 2.52,-2.47 l -1.9,-1.47 4.04,-25.75 12.3,9.38 c 7.83,-11.88 13.58,-25.35 16.75,-39.96 l -23.91,-3.28 c 0.76,-7.9 0.5,-15.7 -0.7,-23.24 l 27.31,3.72 c 0.21,-10.09 -0.88,-19.95 -3.11,-29.45 l -27.84,11 c -2.47,-7.31 -5.81,-14.29 -9.98,-20.71 l 30.37,-12.04 c -7.51,-16.51 -18.75,-31.12 -32.8,-42.66 l -21.92,29.43 c -6.28,-4.4 -13.17,-8.07 -20.54,-10.79 l 23.39,-31.4 c -10.16,-5.43 -21.25,-9.45 -33.07,-11.74 l -5.55,38.94 c -0.88,-0.15 -1.75,-0.35 -2.64,-0.47 -4.81,-0.76 -9.62,-1.14 -14.35,-1.14 -1.99,0 -3.98,0.08 -5.95,0.23 l 5.63,-39.75 c -15.08,-0.03 -29.69,2.84 -43.16,8.15 l 14.91,35.97 c -7.34,2.44 -14.29,5.75 -20.75,9.89 l -14.64,-35.35 c -9.27,5.92 -17.69,13.11 -24.99,21.41 l 28.84,22.04 c -5.78,5.01 -10.94,10.77 -15.35,17.13 l -26.93,-20.59 c -5.4,9.24 -9.57,19.33 -12.32,30.07 l 31.42,4.31 c -3.17,6.93 -5.51,14.38 -6.89,22.21 l -28.05,-3.84 c -0.94,15.61 1.23,30.81 6.04,44.89 l 16.55,-6.54 -4.14,26.28 -2.93,1.18 c 0.7,1.23 1.43,2.43 2.17,3.64 l -8.48,53.98 -5.75,36.59 -1.88,12.06 -187.19,251.15 c 33.59,59.5 71.83,109.29 125.63,140.74 l -9,57.36 c -64.11,-32.42 -110.94,-85.9 -151.51,-151.27 -4.32,-6.96 -8.57,-14.03 -12.77,-21.25 -26.23,-45.15 -50.23,-95.14 -75.22,-147.25 -11.01,-22.95 -22.39,-46.68 -34.07,-70.1 -3.7,-7.45 -7.68,-14.7 -11.82,-21.77 -1.44,-2.43 -2.88,-4.84 -4.34,-7.24 -23.15,-37.65 -51.67,-70.33 -79.46,-102.17 -58.33,-66.8 -94.53,-111.78 -89.54,-172.46 0.2,-2.43 0.44,-4.87 0.76,-7.33 0.7,-5.22 1.56,-10.33 2.49,-15.37 19.66,-106.39 90.05,-171.85 179.1,-233.76 6.54,-4.57 13.2,-9.09 19.95,-13.64 17.72,-11.94 36.05,-23.82 54.77,-35.97 26.38,-17.13 53.67,-34.83 80.51,-53.49 32.54,-22.62 63.26,-47.29 93.01,-71.35 1.64,-1.35 3.32,-2.7 4.96,-4.02 2.64,-2.15 5.25,-4.26 7.86,-6.37 85.09,-68.77 159.79,-126.89 255.52,-126.92 0,0 0,0 0.03,0 10.8,0 21.95,0.76 33.13,2.25 105.92,14.18 173.4,90.99 236.13,182.82 4.51,6.66 9.03,13.38 13.55,20.19 9.51,14.32 18.96,28.93 28.49,43.63 22.09,34.18 44.98,69.5 69.48,102.75 27.05,36.7 55.74,69.44 83.5,101.1 77.28,88.2 138.86,158.47 128.78,269.05 -0.36,3.87 -0.77,7.8 -1.33,11.8 -0.47,3.66 -1.02,7.3 -1.58,10.94 -15.9,105.12 -56.77,201.48 -116.07,283.33 -4.81,6.64 -9.74,13.18 -14.82,19.63 -119.97,153.16 -306.31,250.57 -511.6,250.57 -2.61,0 -5.25,-0.06 -7.86,-0.09 l 8.65,-55.16 c 77.52,-0.12 152.04,-15.4 220.55,-43.19" /><path
         id="path160"
         style="fill:#edf9fe;fill-opacity:1;fill-rule:nonzero;stroke:none"
         d="m 5049.59,5340.14 c 17.37,-20.3 42.89,-32.18 69.71,-32.18 10.01,0 20.16,1.64 30.13,5.1 30.96,10.77 52.46,36.48 59.3,66.25 1.2,5.2 1.94,10.54 2.2,15.94 0.59,11.41 -0.97,23.14 -4.96,34.59 l -52.22,150.22 c -50.82,-23.01 -109.15,-45.42 -171.61,-65.11 l 48.26,-138.86 2.26,-6.49 c 3.88,-11.12 9.71,-21.01 16.93,-29.46" /><path
         id="path162"
         style="fill:#edf9fe;fill-opacity:1;fill-rule:nonzero;stroke:none"
         d="m 3730,5060.01 -13.12,27.11 42.66,11.23 c -10.36,-12.99 -20.18,-25.76 -29.54,-38.34 z m 63.07,-609.57 c 42.49,-17.11 88.52,-24.76 136.61,-23.03 42.96,1.55 87.55,10.59 132.74,27.11 14.26,5.22 28.6,11.21 43.01,17.93 35.62,16.51 71.68,37.58 108.09,63.01 53.72,37.59 108.14,84.74 162.92,141.28 7.9,8.12 13.97,17.37 18.25,27.2 14.82,34.03 7.98,75.13 -20.27,102.51 -36.35,35.26 -94.45,34.36 -129.71,-2.02 -29.17,-30.11 -57.8,-56.81 -85.8,-80.04 -55.95,-46.51 -109.37,-79.19 -159.55,-97.56 -53.25,-19.48 -99.57,-21.56 -137.75,-6.19 -54.19,21.83 -83.18,76.96 -84.35,121.11 -0.03,0.8 -0.06,1.59 -0.06,2.38 -0.06,17.37 5.84,56.39 45.39,124.49 9.57,16.43 21.1,34.59 34.98,54.54 19.98,28.76 44.86,61.24 75.81,97.77 84.85,100.16 171.61,178.3 172.46,179.06 31.57,28.28 39.64,74.52 19.54,111.84 -20.1,37.32 -63.17,56.01 -104.13,45.19 L 3241.78,5151.7 c -11.21,-2.94 -21.77,-8.02 -31.1,-14.88 -2.67,-2 -66.55,-49.29 -139.22,-117.57 -101.93,-95.82 -169.93,-184.4 -202.09,-263.32 -26.96,-66.14 -34.39,-142.54 -20.92,-215.07 14.73,-79.39 53.98,-148.81 110.52,-195.46 38.96,-32.13 103.51,-67.89 197.57,-67.89 86.5,0 197.93,30.22 337.47,121.29 42.43,27.7 54.37,84.56 26.67,126.99 -27.7,42.42 -84.55,54.36 -126.98,26.66 -140.98,-92.04 -256.87,-115.92 -317.99,-65.49 -48.61,40.11 -64.96,129.72 -36.44,199.72 42.57,104.45 195.87,237.51 266.76,292.2 l 230.06,60.62 82.88,-171.29 c -17.02,-44.71 -25.41,-86.2 -25.26,-124.84 0.26,-58.1 18.45,-118.27 51.29,-169.5 24.03,-37.44 54.77,-68.83 90.54,-92.89 8.86,-5.96 18.04,-11.47 27.49,-16.52 9.74,-5.16 19.75,-9.89 30.04,-14.02" /><path
         id="path164"
         style="fill:#edf9fe;fill-opacity:1;fill-rule:nonzero;stroke:none"
         d="m 971.414,9013.31 c 28.926,-63.99 61.586,-122.5 97.806,-175.37 26.89,-39.23 55.73,-75.31 86.49,-108.23 20.97,-22.42 42.82,-43.4 65.55,-62.82 32.7,-27.93 76.58,-34.27 114.26,-20.39 17.8,6.57 34.22,17.66 47.42,33.09 17.87,20.93 26.9,46.42 27.45,71.95 0.72,33.21 -12.92,66.48 -40.15,89.75 -86.78,74.11 -151.31,174.48 -199.22,286.03 -58.7,136.7 -92.41,290.26 -111.35,433.15 -12.22,92.21 -18.3,180 -20.97,255.9 -91.723,-126.16 -153.212,-270.25 -182.493,-430.03 21.973,-111.46 51.106,-213.98 87.082,-306.2 8.941,-22.88 18.324,-45.18 28.125,-66.83" /><path
         id="path166"
         style="fill:#edf9fe;fill-opacity:1;fill-rule:nonzero;stroke:none"
         d="m 2040.98,10205 c 0.43,-10.8 0.92,-21.8 1.5,-32.8 5.77,-108.7 18.28,-210.5 37.28,-304.63 12.36,-61.17 27.42,-119.12 45.25,-173.46 57.48,-175.16 143.7,-314.64 256.38,-414.75 3.51,-3.14 7.04,-6.22 10.61,-9.27 32.7,-27.93 76.58,-34.27 114.25,-20.36 17.8,6.54 34.22,17.63 47.43,33.07 41.13,48.17 35.45,120.55 -12.71,161.69 -3.26,2.79 -6.47,5.6 -9.66,8.48 -136.96,123.34 -204.35,321.89 -236.29,512.19 -12.53,74.64 -19.61,148.04 -23.29,215.04 -1.18,21.6 -2,42.8 -2.59,63.8 -1.42,51.7 -1.18,101.5 0.16,147.8 -79.77,-7.6 -156.54,-18 -230.18,-31.1 -0.77,-49.2 -0.32,-101.5 1.86,-155.7" /><path
         id="path168"
         style="fill:#edf9fe;fill-opacity:1;fill-rule:nonzero;stroke:none"
         d="m 1460.34,9514.46 c 5.95,-16.22 12.04,-32.27 18.22,-48.17 116.03,-298.09 270.48,-536.43 343.12,-640.38 23.44,-33.53 38.36,-53.1 40.72,-56.18 31.33,-40.82 84.69,-54.66 130.54,-37.77 10.58,3.91 20.76,9.42 30.17,16.67 50.23,38.53 59.72,110.47 21.23,160.73 -0.35,0.46 -6.07,8.01 -16,21.8 -54.38,75.61 -235.3,339.99 -354.45,667.13 -2.04,5.57 -4.02,11.15 -6,16.72 -56.93,160.02 -90.74,310.07 -101.52,449.79 -4.13,53.5 -4.91,105.6 -2.28,156.1 -82.98,-36.4 -159.3,-77.9 -228.73,-124.1 1.77,-39.7 5.13,-80 10.08,-120.88 17.81,-147.02 56.2,-301.44 114.9,-461.46" /><path
         id="path170"
         style="fill:#edf9fe;fill-opacity:1;fill-rule:nonzero;stroke:none"
         d="m 4745.34,10335.6 c -106.8,207.8 -425.14,-156 -425.14,-156 0,0 531.93,-51.7 425.14,156" /><path
         id="path172"
         style="fill:#edf9fe;fill-opacity:1;fill-rule:nonzero;stroke:none"
         d="m 4172.12,10938.8 c -227.62,52.5 -155.09,-425.4 -155.09,-425.4 0,0 382.74,373 155.09,425.4" /><path
         id="path174"
         style="fill:#edf9fe;fill-opacity:1;fill-rule:nonzero;stroke:none"
         d="m 6354.05,6290.03 c -132.15,98.99 -278.73,180.91 -435.67,243.46 -267.64,106.71 -471.09,120.12 -479.62,120.62 -25.3,1.55 -47.04,-17.7 -48.56,-42.98 -1.56,-25.3 17.72,-47.04 43.01,-48.59 1.94,-0.12 197.11,-12.97 451.19,-114.25 234.72,-93.6 567.23,-283.72 818.26,-658.04 8.86,-13.18 23.36,-20.3 38.14,-20.3 8.81,0 17.67,2.52 25.53,7.77 21.04,14.11 26.64,42.6 12.53,63.64 -116.63,173.9 -259.54,324.85 -424.81,448.67" /><path
         id="path176"
         style="fill:#edf9fe;fill-opacity:1;fill-rule:nonzero;stroke:none"
         d="m 5781.3,6993.16 c -280.52,65.72 -483.7,48.7 -492.21,47.94 -25.23,-2.23 -43.83,-24.47 -41.63,-49.7 2.23,-25.2 24.5,-43.86 49.7,-41.66 1.97,0.17 199.69,16.34 466.63,-46.68 245.04,-57.89 600.73,-196.49 903.64,-528.18 9.06,-9.92 21.45,-14.93 33.89,-14.93 11.06,0 22.12,3.96 30.92,12 18.72,17.07 20.01,46.09 2.93,64.81 -141.18,154.59 -304.99,282.6 -486.83,380.45 -145.38,78.25 -302.53,137.43 -467.04,175.95" /><path
         id="path178"
         style="fill:#edf9fe;fill-opacity:1;fill-rule:nonzero;stroke:none"
         d="m 9349.93,6082.89 h -76.2 L 8576.96,4871.2 h 180.18 l 592.79,1211.69" /><path
         id="path180"
         style="fill:#edf9fe;fill-opacity:1;fill-rule:nonzero;stroke:none"
         d="m 12202.6,6082.89 645.3,-1211.69 h 85.9 l -640.5,1211.69 h -90.7" /><path
         id="path182"
         style="fill:#edf9fe;fill-opacity:1;fill-rule:nonzero;stroke:none"
         d="m 9110.6,5067.05 c 38.7,-11.06 72.26,-22.16 100.2,-37.17 53.75,-28.93 86.66,-72.5 95.15,-158.68 H 10714.1 V 6082.89 H 9493.93 L 8993.36,5060.8 c 37.78,13.67 77.31,17.63 117.24,6.25" /><path
         id="path184"
         style="fill:#edf9fe;fill-opacity:1;fill-rule:nonzero;stroke:none"
         d="M 12061.3,6082.89 H 10855.8 V 4871.2 h 1824.7 l -619.2,1211.69" /><path
         id="path186"
         style="fill:#edf9fe;fill-opacity:1;fill-rule:nonzero;stroke:none"
         d="m 7345.83,3549.44 h 183.72 v 541.08 c 0,19.43 -15.75,35.21 -35.2,35.21 H 7346.3 c -0.15,0 -0.33,-0.03 -0.47,-0.03 -19.22,-0.26 -34.74,-15.9 -34.74,-35.18 v -541.08 h 34.74" /><path
         id="path188"
         style="fill:#edf9fe;fill-opacity:1;fill-rule:nonzero;stroke:none"
         d="m 13554.2,4125.47 c -17.5,-2.02 -31.1,-16.9 -31.1,-34.95 v -541.08 h 218.5 v 541.08 c 0,19.43 -15.8,35.21 -35.2,35.21 h -148.1 c -1.4,0 -2.7,-0.12 -4.1,-0.26" /><path
         id="path190"
         style="fill:#edf9fe;fill-opacity:1;fill-rule:nonzero;stroke:none"
         d="m 9176.61,3224.46 c -41.84,-78.95 -124.81,-132.76 -220.37,-132.76 -95.56,0 -178.51,53.81 -220.34,132.76 -18.43,34.77 -28.9,74.41 -28.9,116.52 0,137.66 111.58,249.27 249.24,249.27 137.66,0 249.27,-111.61 249.27,-249.27 0,-42.11 -10.47,-81.75 -28.9,-116.52 z m -220.37,521.11 c -223.45,0 -404.57,-181.14 -404.57,-404.59 0,-40.52 5.96,-79.6 17.05,-116.52 27.37,-91.18 86.02,-168.82 163.51,-220.42 64.14,-42.72 141.16,-67.66 224.01,-67.66 88.61,0 170.53,28.49 237.15,76.78 70.98,51.46 124.58,125.37 150.4,211.3 11.07,36.92 17.05,76 17.05,116.52 0,223.45 -181.14,404.59 -404.6,404.59" /><path
         id="path192"
         style="fill:#edf9fe;fill-opacity:1;fill-rule:nonzero;stroke:none"
         d="m 12873.4,3224.46 c -41.8,-78.95 -124.8,-132.76 -220.3,-132.76 -95.6,0 -178.6,53.81 -220.4,132.76 -18.4,34.77 -28.9,74.41 -28.9,116.52 0,137.66 111.6,249.27 249.3,249.27 137.6,0 249.2,-111.61 249.2,-249.27 0,-42.11 -10.4,-81.75 -28.9,-116.52 z m -220.3,521.11 c -223.5,0 -404.6,-181.14 -404.6,-404.59 0,-40.52 6,-79.6 17,-116.52 34.3,-114.04 117.4,-206.87 225.2,-254.14 49.7,-21.8 104.6,-33.94 162.4,-33.94 42.9,0 84.2,6.72 123.1,19.1 126.6,40.4 226.1,141.45 264.4,268.98 11.1,36.92 17,76 17,116.52 0,223.45 -181.1,404.59 -404.5,404.59" /><path
         id="path194"
         style="fill:#edf9fe;fill-opacity:1;fill-rule:nonzero;stroke:none"
         d="m 14169.7,5343.17 h -1112.1 c -25.3,0 -45.8,-20.54 -45.8,-45.86 0,-25.35 20.5,-45.86 45.8,-45.86 h 1112.1 c 25.3,0 45.8,20.51 45.8,45.86 0,25.32 -20.5,45.86 -45.8,45.86" /><path
         id="path196"
         style="fill:#edf9fe;fill-opacity:1;fill-rule:nonzero;stroke:none"
         d="m 13945.3,4905.24 c 25.3,0 45.9,20.54 45.9,45.86 0,25.35 -20.6,45.85 -45.9,45.85 h -887.7 c -25.3,0 -45.8,-20.5 -45.8,-45.85 0,-25.32 20.5,-45.86 45.8,-45.86 h 887.7" /></g></g></svg>